<?xml version="1.0" encoding="utf-8"?>
<svg version="1.1" xmlns:xlink="http://www.w3.org/1999/xlink" width="25px" height="25px" xmlns="http://www.w3.org/2000/svg">
  <g transform="matrix(1 0 0 1 -302 -193 )">
    <path d="M 13.8615733736762 18.8337053571429  L 13.8804841149773 14.6902901785714  L 16.679273827534 16.7550223214286  L 13.8615733736762 18.8337053571429  Z M 13.8804841149773 10.3097098214286  L 13.8615733736762 6.16629464285714  L 16.679273827534 8.24497767857143  L 13.8804841149773 10.3097098214286  Z M 11.4031770045386 14.7181919642857  L 11.4031770045386 23.2421875  L 20.17776096823 16.7689732142857  L 14.3910741301059 12.5  L 20.17776096823 8.23102678571428  L 11.4031770045386 1.7578125  L 11.4031770045386 10.2818080357143  L 6.58093797276853 6.72433035714286  L 4.82223903177005 8.02176339285714  L 10.8736762481089 12.5  L 4.82223903177005 16.9782366071429  L 6.58093797276853 18.2756696428571  L 11.4031770045386 14.7181919642857  Z M 24.3948562783661 7.40094866071428  C 24.798285426122 8.85649181547619  25 10.5561755952381  25 12.5  C 25 14.4438244047619  24.798285426122 16.1435081845238  24.3948562783661 17.5990513392857  C 23.9914271306102 19.0545944940476  23.4398638426626 20.2497209821429  22.7401664145235 21.1844308035714  C 22.0404689863843 22.119140625  21.1548159354513 22.8748139880952  20.0832072617247 23.4514508928571  C 19.011598587998 24.0280877976191  17.8674987392839 24.4303385416667  16.6509077155824 24.658203125  C 15.434316691881 24.8860677083333  14.0506807866868 25  12.5 25  C 10.9493192133132 25  9.56568330811901 24.8860677083333  8.34909228441755 24.658203125  C 7.13250126071609 24.4303385416667  5.98840141200202 24.0280877976191  4.91679273827534 23.4514508928571  C 3.84518406454866 22.8748139880952  2.95953101361573 22.119140625  2.25983358547655 21.1844308035714  C 1.56013615733737 20.2497209821429  1.00857286938981 19.0545944940476  0.605143721633888 17.5990513392857  C 0.201714573877963 16.1435081845238  0 14.4438244047619  0 12.5  C 0 10.5561755952381  0.201714573877963 8.85649181547619  0.605143721633888 7.40094866071428  C 1.00857286938981 5.94540550595238  1.56013615733737 4.75027901785714  2.25983358547655 3.81556919642857  C 2.95953101361573 2.880859375  3.84518406454866 2.12518601190476  4.91679273827534 1.54854910714286  C 5.98840141200202 0.971912202380951  7.13250126071609 0.569661458333331  8.34909228441755 0.341796875  C 9.56568330811901 0.113932291666669  10.9493192133132 0  12.5 0  C 14.0506807866868 0  15.434316691881 0.113932291666669  16.6509077155824 0.341796875  C 17.8674987392839 0.569661458333331  19.011598587998 0.971912202380951  20.0832072617247 1.54854910714286  C 21.1548159354513 2.12518601190476  22.0404689863843 2.880859375  22.7401664145235 3.81556919642857  C 23.4398638426626 4.75027901785714  23.9914271306102 5.94540550595238  24.3948562783661 7.40094866071428  Z " fill-rule="nonzero" fill="#000000" stroke="none" transform="matrix(1 0 0 1 302 193 )" />
  </g>
</svg>