<?xml version="1.0" encoding="utf-8"?>
<svg version="1.1" xmlns:xlink="http://www.w3.org/1999/xlink" width="642px" height="852px" xmlns="http://www.w3.org/2000/svg">
  <g transform="matrix(1 0 0 1 -121 -100 )">
    <path d="M 562.205965909091 105.894886363636  C 547.919034090909 86.934659090909  530.744318181818 77.4545454545455  510.681818181818 78  L 131.318181818182 78  C 111.255681818182 77.4545454545455  94.0809659090909 86.934659090909  79.7940340909091 105.894886363636  C 65.5071022727273 124.855113636364  58.3636363636364 147.647727272727  59 174.272727272727  L 59 677.727272727273  C 58.3636363636364 704.352272727273  65.5071022727273 727.144886363636  79.7940340909091 746.105113636364  C 94.0809659090909 765.065340909091  111.255681818182 774.545454545455  131.318181818182 774  L 510.681818181818 774  C 530.744318181818 774.545454545455  547.919034090909 765.065340909091  562.205965909091 746.105113636364  C 576.492897727273 727.144886363636  583.636363636364 704.352272727273  583 677.727272727273  L 583 174.272727272727  C 583.636363636364 147.647727272727  576.492897727273 124.855113636364  562.205965909091 105.894886363636  Z M 603.470880681818 51.1321022727273  C 629.156960227273 85.2201704545454  642 126.267045454545  642 174.272727272727  L 642 677.727272727273  C 642 725.732954545455  629.156960227273 766.779829545455  603.470880681818 800.867897727273  C 577.784801136364 834.955965909091  546.855113636364 852  510.681818181818 852  L 131.318181818182 852  C 95.1448863636364 852  64.2151988636364 834.955965909091  38.5291193181818 800.867897727273  C 12.8430397727273 766.779829545455  0 725.732954545455  0 677.727272727273  L 0 174.272727272727  C 0 126.267045454545  12.8430397727273 85.2201704545454  38.5291193181818 51.1321022727273  C 64.2151988636364 17.044034090909  95.1448863636364 0  131.318181818182 0  L 510.681818181818 0  C 546.855113636364 0  577.784801136364 17.044034090909  603.470880681818 51.1321022727273  Z " fill-rule="nonzero" fill="#000000" stroke="none" transform="matrix(1 0 0 1 121 100 )" />
  </g>
</svg>