<?xml version="1.0" encoding="utf-8"?>
<svg version="1.1" xmlns:xlink="http://www.w3.org/1999/xlink" width="28px" height="22px" xmlns="http://www.w3.org/2000/svg">
  <g transform="matrix(1 0 0 1 -542 -196 )">
    <path d="M 3.859375 18.4622395833333  C 3.953125 18.5481770833333  4 18.6579861111111  4 18.7916666666667  L 4 21.5416666666667  C 4 21.6753472222222  3.953125 21.78515625  3.859375 21.87109375  C 3.765625 21.95703125  3.64583333333333 22  3.5 22  L 0.5 22  C 0.354166666666667 22  0.234375 21.95703125  0.140625 21.87109375  C 0.046875 21.78515625  0 21.6753472222222  0 21.5416666666667  L 0 18.7916666666667  C 0 18.6579861111111  0.046875 18.5481770833333  0.140625 18.4622395833333  C 0.234375 18.3763020833333  0.354166666666667 18.3333333333333  0.5 18.3333333333333  L 3.5 18.3333333333333  C 3.64583333333333 18.3333333333333  3.765625 18.3763020833333  3.859375 18.4622395833333  Z M 9.859375 16.62890625  C 9.953125 16.71484375  10 16.8246527777778  10 16.9583333333333  L 10 21.5416666666667  C 10 21.6753472222222  9.953125 21.78515625  9.859375 21.87109375  C 9.765625 21.95703125  9.64583333333333 22  9.5 22  L 6.5 22  C 6.35416666666667 22  6.234375 21.95703125  6.140625 21.87109375  C 6.046875 21.78515625  6 21.6753472222222  6 21.5416666666667  L 6 16.9583333333333  C 6 16.8246527777778  6.046875 16.71484375  6.140625 16.62890625  C 6.234375 16.54296875  6.35416666666667 16.5  6.5 16.5  L 9.5 16.5  C 9.64583333333333 16.5  9.765625 16.54296875  9.859375 16.62890625  Z M 15.859375 12.9622395833333  C 15.953125 13.0481770833333  16 13.1579861111111  16 13.2916666666667  L 16 21.5416666666667  C 16 21.6753472222222  15.953125 21.78515625  15.859375 21.87109375  C 15.765625 21.95703125  15.6458333333333 22  15.5 22  L 12.5 22  C 12.3541666666667 22  12.234375 21.95703125  12.140625 21.87109375  C 12.046875 21.78515625  12 21.6753472222222  12 21.5416666666667  L 12 13.2916666666667  C 12 13.1579861111111  12.046875 13.0481770833333  12.140625 12.9622395833333  C 12.234375 12.8763020833333  12.3541666666667 12.8333333333333  12.5 12.8333333333333  L 15.5 12.8333333333333  C 15.6458333333333 12.8333333333333  15.765625 12.8763020833333  15.859375 12.9622395833333  Z M 21.859375 7.46223958333333  C 21.953125 7.54817708333333  22 7.65798611111111  22 7.79166666666667  L 22 21.5416666666667  C 22 21.6753472222222  21.953125 21.78515625  21.859375 21.87109375  C 21.765625 21.95703125  21.6458333333333 22  21.5 22  L 18.5 22  C 18.3541666666667 22  18.234375 21.95703125  18.140625 21.87109375  C 18.046875 21.78515625  18 21.6753472222222  18 21.5416666666667  L 18 7.79166666666667  C 18 7.65798611111111  18.046875 7.54817708333333  18.140625 7.46223958333333  C 18.234375 7.37630208333333  18.3541666666667 7.33333333333333  18.5 7.33333333333333  L 21.5 7.33333333333333  C 21.6458333333333 7.33333333333333  21.765625 7.37630208333333  21.859375 7.46223958333333  Z M 27.859375 0.12890625  C 27.953125 0.21484375  28 0.324652777777775  28 0.458333333333334  L 28 21.5416666666667  C 28 21.6753472222222  27.953125 21.78515625  27.859375 21.87109375  C 27.765625 21.95703125  27.6458333333333 22  27.5 22  L 24.5 22  C 24.3541666666667 22  24.234375 21.95703125  24.140625 21.87109375  C 24.046875 21.78515625  24 21.6753472222222  24 21.5416666666667  L 24 0.458333333333334  C 24 0.324652777777775  24.046875 0.21484375  24.140625 0.12890625  C 24.234375 0.04296875  24.3541666666667 0  24.5 0  L 27.5 0  C 27.6458333333333 0  27.765625 0.04296875  27.859375 0.12890625  Z " fill-rule="nonzero" fill="#000000" stroke="none" transform="matrix(1 0 0 1 542 196 )" />
  </g>
</svg>