<?xml version="1.0" encoding="utf-8"?>
<svg version="1.1" xmlns:xlink="http://www.w3.org/1999/xlink" width="34px" height="29px" xmlns="http://www.w3.org/2000/svg">
  <g transform="matrix(1 0 0 1 -584 -192 )">
    <path d="M 18.6099796334012 27.4720430107527  C 17.7674813306178 28.4906810035842  17.2308214528174 29  17 29  C 16.7691785471826 29  16.2325186693822 28.4906810035842  15.3900203665988 27.4720430107527  C 14.5475220638153 26.4534050179211  14.1262729124236 25.805495818399  14.1262729124236 25.5283154121864  C 14.1262729124236 25.0848267622461  14.4869314324508 24.710633213859  15.2082484725051 24.4057347670251  C 15.9295655125594 24.1008363201912  16.5268160217244 23.9483870967742  17 23.9483870967742  C 17.4731839782756 23.9483870967742  18.0704344874406 24.1008363201912  18.7917515274949 24.4057347670251  C 19.5130685675492 24.710633213859  19.8737270875764 25.0848267622461  19.8737270875764 25.5283154121864  C 19.8737270875764 25.805495818399  19.4524779361847 26.4534050179211  18.6099796334012 27.4720430107527  Z M 23.2927698574338 21.8071684587814  C 22.4214188730482 22.8465949820789  21.8818737270876 23.3663082437276  21.6741344195519 23.3663082437276  C 21.6510522742702 23.3663082437276  21.4202308214528 23.1930704898447  20.9816700610998 22.8465949820789  C 20.5431093007468 22.500119474313  19.9573998642227 22.1536439665472  19.2245417515275 21.8071684587814  C 18.4916836388323 21.4606929510155  17.7501697216565 21.2874551971326  17 21.2874551971326  C 16.2498302783435 21.2874551971326  15.5083163611677 21.4606929510155  14.7754582484725 21.8071684587814  C 14.0426001357773 22.1536439665472  13.4597759674134 22.500119474313  13.0269857433809 22.8465949820789  C 12.5941955193483 23.1930704898447  12.3604887983707 23.3663082437276  12.3258655804481 23.3663082437276  C 12.1181262729124 23.3663082437276  11.5785811269518 22.8465949820789  10.7072301425662 21.8071684587814  C 9.83587915818059 20.7677419354839  9.40020366598778 20.1232974910394  9.40020366598778 19.873835125448  C 9.40020366598778 19.6936678614098  9.45790902919213 19.5342891278375  9.57331975560082 19.3956989247312  C 10.4735234215886 18.3285543608124  11.6045485403938 17.4900836320191  12.9663951120163 16.8802867383513  C 14.3282416836388 16.2704898446834  15.6727766463001 15.9655913978495  17 15.9655913978495  C 18.3272233536999 15.9655913978495  19.6717583163612 16.2704898446834  21.0336048879837 16.8802867383513  C 22.3954514596062 17.4900836320191  23.5264765784114 18.3285543608124  24.4266802443992 19.3956989247312  C 24.5420909708079 19.5342891278375  24.5997963340122 19.6936678614098  24.5997963340122 19.873835125448  C 24.5997963340122 20.1232974910394  24.1641208418194 20.7677419354839  23.2927698574338 21.8071684587814  Z M 27.9928716904277 16.152688172043  C 27.1272912423625 17.1921146953405  26.5964019008826 17.7118279569893  26.4002036659878 17.7118279569893  C 26.2732518669382 17.7118279569893  26.1405295315682 17.6563918757467  26.0020366598778 17.5455197132616  C 24.4324507807196 16.0903225806452  22.9782756279701 15.0197132616487  21.6395112016293 14.3336917562724  C 20.3007467752885 13.6476702508961  18.7542430414121 13.3046594982079  17 13.3046594982079  C 16.0190088255261 13.3046594982079  15.0351323828921 13.4571087216249  14.0483706720978 13.7620071684588  C 13.0616089613035 14.0669056152927  12.2017990495587 14.4341696535245  11.4689409368635 14.8637992831541  C 10.7360828241684 15.2934289127838  10.081126951799 15.7230585424134  9.5040733197556 16.152688172043  C 8.92701968771215 16.5823178016726  8.47114731839783 16.9495818399044  8.13645621181263 17.2544802867384  C 7.80176510522743 17.5593787335723  7.62287847929396 17.7118279569893  7.59979633401222 17.7118279569893  C 7.40359809911745 17.7118279569893  6.87270875763747 17.1921146953405  6.0071283095723 16.152688172043  C 5.14154786150713 15.1132616487455  4.70875763747454 14.4688172043011  4.70875763747454 14.2193548387097  C 4.70875763747454 14.0530465949821  4.76646300067889 13.9005973715651  4.88187372708758 13.7620071684588  C 6.40529531568228 11.9326164874552  8.25186693822132 10.5120669056153  10.4215885947047 9.50035842293907  C 12.5913102511881 8.48864994026284  14.7841140529532 7.98279569892473  17 7.98279569892473  C 19.2158859470468 7.98279569892473  21.4086897488119 8.48864994026284  23.5784114052953 9.50035842293907  C 25.7481330617787 10.5120669056153  27.5947046843177 11.9326164874552  29.1181262729124 13.7620071684588  C 29.2335369993211 13.9005973715651  29.2912423625255 14.0530465949821  29.2912423625255 14.2193548387097  C 29.2912423625255 14.4688172043011  28.8584521384929 15.1132616487455  27.9928716904277 16.152688172043  Z M 32.6929735234216 10.5189964157706  C 31.821622539036 11.5584229390681  31.2878479293958 12.0781362007168  31.091649694501 12.0781362007168  C 30.9646978954515 12.0781362007168  30.8377460964019 12.015770609319  30.7107942973523 11.8910394265233  C 28.6449422946368 9.71517323775388  26.5011880515954 8.0763440860215  24.2795315682281 6.97455197132617  C 22.0578750848608 5.87275985663082  19.6313645621181 5.32186379928315  17 5.32186379928315  C 14.3686354378819 5.32186379928315  11.9421249151392 5.87275985663082  9.7204684317719 6.97455197132617  C 7.49881194840462 8.0763440860215  5.3550577053632 9.71517323775388  3.28920570264766 11.8910394265233  C 3.1622539035981 12.015770609319  3.03530210454854 12.0781362007168  2.90835030549898 12.0781362007168  C 2.71215207060421 12.0781362007168  2.17837746096402 11.5584229390681  1.30702647657841 10.5189964157706  C 0.435675492192804 9.47956989247312  0 8.83512544802867  0 8.58566308243728  C 0 8.40549581839904  0.0577053632043449 8.24611708482676  0.173116089613035 8.10752688172043  C 2.33129667345553 5.52974910394265  4.89918533604888 3.53405017921147  7.87678207739307 2.12043010752688  C 10.8543788187373 0.706810035842293  13.8954514596062 0  17 0  C 20.1045485403938 0  23.1456211812627 0.706810035842293  26.1232179226069 2.12043010752688  C 29.1008146639511 3.53405017921147  31.6687033265445 5.52974910394265  33.826883910387 8.10752688172043  C 33.9422946367957 8.24611708482676  34 8.40549581839904  34 8.58566308243728  C 34 8.83512544802867  33.5643245078072 9.47956989247312  32.6929735234216 10.5189964157706  Z " fill-rule="nonzero" fill="#000000" stroke="none" transform="matrix(1 0 0 1 584 192 )" />
  </g>
</svg>