<?xml version="1.0" encoding="utf-8"?>
<svg version="1.1" xmlns:xlink="http://www.w3.org/1999/xlink" width="25px" height="26px" xmlns="http://www.w3.org/2000/svg">
  <g transform="matrix(1 0 0 1 -266 -192 )">
    <path d="M 24.9733853797019 0.987926136363636  C 25.0147859001656 1.24029356060606  24.976342559735 1.48342803030303  24.8580553584102 1.71732954545455  L 13.5024840312278 25.3536931818182  C 13.3013957889756 25.7845643939394  12.9642772651999 26  12.4911284599006 26  C 12.4319848592382 26  12.3432694582446 25.9876893939394  12.2249822569198 25.9630681818182  C 11.9647504140052 25.9015151515152  11.7547906316537 25.7630208333333  11.5951029098652 25.5475852272727  C 11.4354151880767 25.3321496212121  11.3555713271824 25.0890151515152  11.3555713271824 24.8181818181818  L 11.3555713271824 14  L 1.13555713271824 14  C 0.875325289803643 14.1818181818182  0.64170806718713 14.0987215909091  0.434705464868701 13.9325284090909  C 0.227702862550272 13.7663352272727  0.0946297610598533 13.547821969697  0.035486160397445 13.2769886363636  C -0.0236574402649633 13.0061553030303  0 12.7476325757576  0.106458481192335 12.5014204545455  C 0.21291696238467 12.2552083333333  0.384433404305654 12.0705492424242  0.621007806955287 11.9474431818182  L 23.3321504613201 0.129261363636364  C 23.4859238230423 0.0430871212121196  23.6574402649633 0  23.846699787083 0  C 24.16607523066 0  24.4322214336409 0.116950757575755  24.6451383960256 0.350852272727274  C 24.8225691980128 0.523200757575755  24.9319848592382 0.73555871212121  24.9733853797019 0.987926136363636  Z " fill-rule="nonzero" fill="#000000" stroke="none" transform="matrix(1 0 0 1 266 192 )" />
  </g>
</svg>