<?xml version="1.0" encoding="utf-8"?>
<svg version="1.1" xmlns:xlink="http://www.w3.org/1999/xlink" width="33px" height="22px" xmlns="http://www.w3.org/2000/svg">
  <g transform="matrix(1 0 0 1 -626 -197 )">
    <path d="M 4 4.4  L 27 4.4  L 27 17.6  L 4 17.6  L 4 4.4  Z M 29.3333333333333 19.25  L 29.3333333333333 14.3  L 31.1666666666667 14.3  L 31.1666666666667 7.7  L 29.3333333333333 7.7  L 29.3333333333333 2.75  C 29.3333333333333 2.58958333333333  29.2903645833333 2.4578125  29.2044270833333 2.3546875  C 29.1184895833333 2.2515625  29.0086805555556 2.2  28.875 2.2  L 2.29166666666667 2.2  C 2.15798611111111 2.2  2.04817708333333 2.2515625  1.96223958333333 2.3546875  C 1.87630208333333 2.4578125  1.83333333333333 2.58958333333333  2 2.75  L 2 19.25  C 1.83333333333333 19.4104166666667  1.87630208333333 19.5421875  1.96223958333333 19.6453125  C 2.04817708333333 19.7484375  2.15798611111111 19.8  2.29166666666667 19.8  L 28.875 19.8  C 29.0086805555556 19.8  29.1184895833333 19.7484375  29.2044270833333 19.6453125  C 29.2903645833333 19.5421875  29.3333333333333 19.4104166666667  29.3333333333333 19.25  Z M 32.462890625 6.14453125  C 32.8209635416667 6.57421875  33 7.09270833333333  33 7.7  L 33 14.3  C 33 14.9072916666667  32.8209635416667 15.42578125  32.462890625 15.85546875  C 32.1048177083333 16.28515625  31.6727430555556 16.5  31.1666666666667 16.5  L 31.1666666666667 19.25  C 31.1666666666667 20.00625  30.9422743055556 20.6536458333333  30.4934895833333 21.1921875  C 30.0447048611111 21.7307291666667  29.5052083333333 22  28.875 22  L 2.29166666666667 22  C 1.66145833333333 22  1.12196180555556 21.7307291666667  0.673177083333333 21.1921875  C 0.224392361111111 20.6536458333333  0 20.00625  0 19.25  L 0 2.75  C 0 1.99375  0.224392361111111 1.34635416666667  0.673177083333333 0.8078125  C 1.12196180555556 0.26927083333333  1.66145833333333 0  2.29166666666667 0  L 28.875 0  C 29.5052083333333 0  30.0447048611111 0.26927083333333  30.4934895833333 0.8078125  C 30.9422743055556 1.34635416666667  31.1666666666667 1.99375  31.1666666666667 2.75  L 31.1666666666667 5.5  C 31.6727430555556 5.5  32.1048177083333 5.71484375  32.462890625 6.14453125  Z " fill-rule="nonzero" fill="#000000" stroke="none" transform="matrix(1 0 0 1 626 197 )" />
  </g>
</svg>