<?xml version="1.0" encoding="utf-8"?>
<svg version="1.1" xmlns:xlink="http://www.w3.org/1999/xlink" width="96px" height="122px" xmlns="http://www.w3.org/2000/svg">
  <g transform="matrix(1 0 0 1 -342 -188 )">
    <path d="M 30.5454545454545 65.6923076923077  L 39.2727272727273 112.615384615385  L 45.8181818181818 79.7692307692308  L 39.2727272727273 70.3846153846154  L 30.5454545454545 65.6923076923077  Z M 50.1818181818182 79.7692307692308  L 56.7272727272727 112.615384615385  L 65.4545454545455 65.6923076923077  L 56.7272727272727 70.3846153846154  L 50.1818181818182 79.7692307692308  Z M 67.3636363636364 40.5444711538461  C 67.4545454545455 40.1045673076923  67.5454545454545 39.4447115384615  67.6363636363636 38.5649038461539  C 67.5454545454545 38.369391025641  67.4545454545455 38.2227564102564  67.3636363636364 38.125  C 66.9090909090909 37.7339743589743  64.7272727272727 37.5384615384615  60.8181818181818 37.5384615384615  C 57.6363636363636 37.5384615384615  53.8409090909091 38.0028044871795  49.4318181818182 38.9314903846154  C 49.1136363636364 39.0292467948718  48.6363636363636 39.078125  48 39.078125  C 47.3636363636364 39.078125  46.8863636363636 39.0292467948718  46.5681818181818 38.9314903846154  C 42.1590909090909 38.0028044871795  38.3636363636364 37.5384615384615  35.1818181818182 37.5384615384615  C 31.2727272727273 37.5384615384615  29.0909090909091 37.7339743589743  28.6363636363636 38.125  C 28.5454545454545 38.2227564102564  28.4545454545455 38.369391025641  28.3636363636364 38.5649038461539  C 28.4545454545455 39.4447115384615  28.5454545454545 40.1045673076923  28.6363636363636 40.5444711538461  C 28.7272727272727 40.6911057692308  28.8977272727273 40.8499599358974  29.1477272727273 41.0210336538461  C 29.3977272727273 41.1921073717949  29.5681818181818 41.4487179487179  29.6590909090909 41.7908653846154  C 29.75 41.9863782051282  29.9204545454545 42.4873798076923  30.1704545454545 43.2938701923077  C 30.4204545454545 44.1003605769231  30.5795454545455 44.6013621794872  30.6477272727273 44.796875  C 30.7159090909091 44.9923878205128  30.8863636363636 45.4078525641026  31.1590909090909 46.0432692307692  C 31.4318181818182 46.6786858974359  31.625 47.0941506410256  31.7386363636364 47.2896634615385  C 31.8522727272727 47.4851762820513  32.0568181818182 47.8273237179487  32.3522727272727 48.3161057692308  C 32.6477272727273 48.8048878205128  32.9204545454545 49.1348157051282  33.1704545454545 49.3058894230769  C 33.4204545454546 49.4769631410256  33.7386363636364 49.7091346153846  34.125 50.0024038461539  C 34.5113636363636 50.2956730769231  34.9090909090909 50.4911858974359  35.3181818181818 50.5889423076923  C 35.7272727272727 50.6866987179487  36.1931818181818 50.7844551282051  36.7159090909091 50.8822115384615  C 37.2386363636364 50.9799679487179  37.7954545454545 51.0288461538461  38.3863636363636 51.0288461538461  C 40.0227272727273 51.0288461538461  41.3636363636364 50.7233573717949  42.4090909090909 50.1123798076923  C 43.4545454545455 49.5014022435897  44.1931818181818 48.7682291666667  44.625 47.9128605769231  C 45.0568181818182 47.0574919871795  45.3863636363636 46.2143429487179  45.6136363636364 45.3834134615385  C 45.8409090909091 44.552483974359  46.1022727272727 43.8315304487179  46.3977272727273 43.2205528846154  C 46.6931818181818 42.6095753205128  47.0909090909091 42.3040865384615  47.5909090909091 42.3040865384615  L 48.4090909090909 42.3040865384615  C 48.9090909090909 42.3040865384615  49.3068181818182 42.6095753205128  49.6022727272727 43.2205528846154  C 49.8977272727273 43.8315304487179  50.1590909090909 44.552483974359  50.3863636363636 45.3834134615385  C 50.6136363636364 46.2143429487179  50.9431818181818 47.0574919871795  51.375 47.9128605769231  C 51.8068181818182 48.7682291666667  52.5454545454545 49.5014022435897  53.5909090909091 50.1123798076923  C 54.6363636363636 50.7233573717949  55.9772727272727 51.0288461538461  57.6136363636364 51.0288461538461  C 58.2045454545455 51.0288461538461  58.7613636363636 50.9799679487179  59.2840909090909 50.8822115384615  C 59.8068181818182 50.7844551282051  60.2727272727273 50.6866987179487  60.6818181818182 50.5889423076923  C 61.0909090909091 50.4911858974359  61.4886363636364 50.2956730769231  61.875 50.0024038461539  C 62.2613636363636 49.7091346153846  62.5795454545455 49.4769631410256  62.8295454545455 49.3058894230769  C 63.0795454545455 49.1348157051282  63.3522727272727 48.8048878205128  63.6477272727273 48.3161057692308  C 63.9431818181818 47.8273237179487  64.1477272727273 47.4851762820513  64.2613636363636 47.2896634615385  C 64.375 47.0941506410256  64.5681818181818 46.6786858974359  64.8409090909091 46.0432692307692  C 65.1136363636364 45.4078525641026  65.2840909090909 44.9923878205128  65.3522727272727 44.796875  C 65.4204545454545 44.6013621794872  65.5795454545455 44.1003605769231  65.8295454545455 43.2938701923077  C 66.0795454545455 42.4873798076923  66.25 41.9863782051282  66.3409090909091 41.7908653846154  C 66.4318181818182 41.4487179487179  66.6022727272727 41.1921073717949  66.8522727272727 41.0210336538461  C 67.1022727272727 40.8499599358974  67.2727272727273 40.6911057692308  67.3636363636364 40.5444711538461  Z M 95.4545454545455 92.1231971153846  C 95.8181818181818 95.6179887820513  96 99.2471955128205  96 103.010817307692  C 96 108.925080128205  94.3409090909091 113.568509615385  91.0227272727273 116.941105769231  C 87.7045454545455 120.313701923077  83.2954545454545 122  77.7954545454545 122  L 18.2045454545455 122  C 12.7045454545455 122  8.29545454545455 120.313701923077  4.97727272727273 116.941105769231  C 1.65909090909091 113.568509615385  0 108.925080128205  0 103.010817307692  C 0 100.029246794872  0.102272727272727 97.1454326923077  0.306818181818182 94.359375  C 0.511363636363636 91.5733173076923  0.943181818181818 88.5062099358974  1.60227272727273 85.1580528846154  C 2.26136363636364 81.8098958333333  3.11363636363636 78.7916666666667  4.15909090909091 76.1033653846154  C 5.20454545454546 73.4150641025641  6.64772727272727 70.8856169871795  8.48863636363636 68.5150240384615  C 10.3295454545455 66.1444310897436  12.4545454545455 64.3237179487179  14.8636363636364 63.0528846153846  L 8.72727272727273 47  L 23.3181818181818 47  C 22.3181818181818 43.7948717948718  21.8181818181818 40.6666666666667  21.8181818181818 37.5384615384615  C 21.8181818181818 36.9519230769231  21.8636363636364 36.1698717948718  21.9545454545455 35.1923076923077  C 13.1363636363636 33.2371794871795  8.72727272727273 30.8910256410256  8.72727272727273 28.1538461538462  C 8.72727272727273 25.3677884615385  13.5 22.9483173076923  23.0454545454545 20.8954326923077  C 23.8181818181818 17.864983974359  24.9886363636364 14.5901442307692  26.5568181818182 11.0709134615385  C 28.125 7.55168269230769  29.7272727272727 4.765625  31.3636363636364 2.71274038461538  C 32.8181818181818 0.904246794871802  34.5454545454546 0  36.5454545454545 0  C 37.9090909090909 0  39.8181818181818 0.757612179487194  42.2727272727273 2.27283653846154  C 44.7272727272727 3.78806089743589  46.6363636363636 4.54567307692308  48 4.54567307692308  C 49.3636363636364 4.54567307692308  51.2727272727273 3.78806089743589  53.7272727272727 2.27283653846154  C 56.1818181818182 0.757612179487194  58.0909090909091 0  59.4545454545455 0  C 61.4545454545455 0  63.1818181818182 0.904246794871802  64.6363636363636 2.71274038461538  C 66.2727272727273 4.765625  67.875 7.55168269230769  69.4431818181818 11.0709134615385  C 71.0113636363636 14.5901442307692  72.1818181818182 17.864983974359  72.9545454545455 20.8954326923077  C 82.5 22.9483173076923  87.2727272727273 25.3677884615385  87.2727272727273 28.1538461538462  C 87.2727272727273 30.8910256410256  82.8636363636364 33.2371794871795  74.0454545454545 35.1923076923077  C 74.3636363636364 39.1514423076923  73.9090909090909 43.0616987179487  72.6818181818182 47  L 87.2727272727273 47  L 81.6818181818182 63.4194711538462  C 84.5454545454545 65.0324519230769  86.9886363636364 67.3908253205128  89.0113636363636 70.4945913461538  C 91.0340909090909 73.5983573717949  92.5227272727273 77.1053685897436  93.4772727272727 81.015625  C 94.4318181818182 84.9258814102564  95.0909090909091 88.6284054487179  95.4545454545455 92.1231971153846  Z " fill-rule="nonzero" fill="#000000" stroke="none" transform="matrix(1 0 0 1 342 188 )" />
  </g>
</svg>