<?xml version="1.0" encoding="utf-8"?>
<svg version="1.1" xmlns:xlink="http://www.w3.org/1999/xlink" width="48px" height="50px" xmlns="http://www.w3.org/2000/svg">
  <g transform="matrix(1 0 0 1 -397 -660 )">
    <path d="M 12.2451923076923 37.7170138888889  C 12.4797203872816 37.9522658205757  12.6761127622573 38.2033291606568  12.8343694326193 38.4702039091324  C 13.1627385288218 39.0239462553837  13.3269230769231 39.6457610017223  13.3269230769231 40.3356481481482  C 13.3269230769231 41.358024691358  12.9663461538461 42.2309027777778  12.2451923076923 42.9542824074074  C 11.5240384615385 43.6776620370371  10.6538461538461 44.0393518518518  9.63461538461536 44.0393518518518  C 8.63461538461536 44.0393518518518  7.76923076923077 43.6728395061729  7.03846153846155 42.9398148148148  C 6.30769230769232 42.2067901234568  5.94230769230768 41.3387345679013  5.94230769230768 40.3356481481482  C 5.94230769230768 39.3132716049382  6.30288461538464 38.4403935185185  7.02403846153845 37.7170138888889  C 7.74519230769232 36.9936342592592  8.61538461538464 36.6319444444445  9.63461538461536 36.6319444444445  C 10.6538461538461 36.6319444444445  11.5240384615385 36.9936342592592  12.2451923076923 37.7170138888889  Z M 26.6105769230769 43.6776620370371  C 27.3317307692308 44.4010416666666  27.6923076923077 45.2739197530864  27.6923076923077 46.2962962962963  C 27.6923076923077 47.3186728395061  27.3317307692308 48.1915509259259  26.6105769230769 48.9149305555555  C 25.8894230769231 49.6383101851852  25.0192307692308 50  24 50  C 22.9807692307692 50  22.1105769230769 49.6383101851852  21.3894230769231 48.9149305555555  C 20.6682692307692 48.1915509259259  20.3076923076923 47.3186728395061  20.3076923076923 46.2962962962963  C 20.3076923076923 45.2739197530864  20.6682692307692 44.4010416666666  21.3894230769231 43.6776620370371  C 22.1105769230769 42.9542824074074  22.9807692307692 42.5925925925926  24 42.5925925925926  C 25.0192307692308 42.5925925925926  25.8894230769231 42.9542824074074  26.6105769230769 43.6776620370371  Z M 6.30288461538464 23.3072916666666  C 7.02403846153845 24.0306712962963  7.38461538461536 24.9035493827161  7.38461538461536 25.925925925926  C 7.38461538461536 26.9483024691358  7.02403846153845 27.8211805555555  6.30288461538464 28.5445601851852  C 5.58173076923077 29.2679398148148  4.71153846153845 29.6296296296297  3.69230769230768 29.6296296296297  C 2.67307692307691 29.6296296296297  1.80288461538464 29.2679398148148  1.08173076923077 28.5445601851852  C 0.360576923076906 27.8211805555555  0 26.9483024691358  0 25.925925925926  C 0 24.9035493827161  0.360576923076906 24.0306712962963  1.08173076923077 23.3072916666666  C 1.80288461538464 22.5839120370371  2.67307692307691 22.2222222222222  3.69230769230768 22.2222222222222  C 4.71153846153845 22.2222222222222  5.58173076923077 22.5839120370371  6.30288461538464 23.3072916666666  Z M 40.9759615384615 37.7170138888889  C 41.6971153846154 38.4403935185185  42.0576923076923 39.3132716049382  42.0576923076923 40.3356481481482  C 42.0576923076923 41.3387345679013  41.6923076923077 42.2067901234568  40.9615384615385 42.9398148148148  C 40.2307692307693 43.6728395061729  39.3653846153846 44.0393518518518  38.3653846153846 44.0393518518518  C 37.3461538461538 44.0393518518518  36.4759615384615 43.6776620370371  35.7548076923077 42.9542824074074  C 35.0336538461538 42.2309027777778  34.6730769230769 41.358024691358  34.6730769230769 40.3356481481482  C 34.6730769230769 39.3132716049382  35.0336538461538 38.4403935185185  35.7548076923077 37.7170138888889  C 36.4759615384615 36.9936342592592  37.3461538461538 36.6319444444445  38.3653846153846 36.6319444444445  C 39.3846153846154 36.6319444444445  40.2548076923077 36.9936342592592  40.9759615384615 37.7170138888889  Z M 12.8942307692308 8.24652777777783  C 13.7980769230769 9.15316358024688  14.25 10.2430555555555  14.25 11.5162037037037  C 14.25 12.7893518518518  13.7980769230769 13.8792438271605  12.8942307692308 14.7858796296297  C 11.9903846153846 15.6925154320987  10.9038461538461 16.1458333333334  9.63461538461536 16.1458333333334  C 8.36538461538464 16.1458333333334  7.27884615384613 15.6925154320987  6.375 14.7858796296297  C 5.47115384615387 13.8792438271605  5.01923076923077 12.7893518518518  5.01923076923077 11.5162037037037  C 5.01923076923077 10.2430555555555  5.47115384615387 9.15316358024688  6.375 8.24652777777783  C 7.27884615384613 7.33989197530866  8.36538461538464 6.88657407407402  9.63461538461536 6.88657407407402  C 10.9038461538461 6.88657407407402  11.9903846153846 7.33989197530866  12.8942307692308 8.24652777777783  Z M 46.9182692307693 23.3072916666666  C 47.6394230769231 24.0306712962963  48 24.9035493827161  48 25.925925925926  C 48 26.9483024691358  47.6394230769231 27.8211805555555  46.9182692307693 28.5445601851852  C 46.1971153846154 29.2679398148148  45.3269230769231 29.6296296296297  44.3076923076923 29.6296296296297  C 43.2884615384615 29.6296296296297  42.4182692307693 29.2679398148148  41.6971153846154 28.5445601851852  C 40.9759615384615 27.8211805555555  40.6153846153846 26.9483024691358  40.6153846153846 25.925925925926  C 40.6153846153846 24.9035493827161  40.9759615384615 24.0306712962963  41.6971153846154 23.3072916666666  C 42.4182692307693 22.5839120370371  43.2884615384615 22.2222222222222  44.3076923076923 22.2222222222222  C 45.3269230769231 22.2222222222222  46.1971153846154 22.5839120370371  46.9182692307693 23.3072916666666  Z M 27.9230769230769 1.62037037037032  C 29 2.70061728395058  29.5384615384615 4.01234567901236  29.5384615384615 5.55555555555554  C 29.5384615384615 7.09876543209873  29 8.41049382716051  27.9230769230769 9.49074074074076  C 26.8461538461539 10.570987654321  25.5384615384615 11.1111111111111  24 11.1111111111111  C 22.4615384615385 11.1111111111111  21.1538461538462 10.570987654321  20.0769230769231 9.49074074074076  C 19 8.41049382716051  18.4615384615385 7.09876543209873  18.4615384615385 5.55555555555554  C 18.4615384615385 4.01234567901236  19 2.70061728395058  20.0769230769231 1.62037037037032  C 21.1538461538462 0.54012345679007  22.4615384615385 0  24 0  C 25.5384615384615 0  26.8461538461539 0.54012345679007  27.9230769230769 1.62037037037032  Z M 42.9230769230769 6.94444444444446  C 44.1923076923077 8.21759259259261  44.8269230769231 9.74151234567898  44.8269230769231 11.5162037037037  C 44.8269230769231 13.3101851851852  44.1923076923077 14.8389274691358  42.9230769230769 16.1024305555555  C 41.6538461538462 17.3659336419753  40.1346153846154 17.9976851851852  38.3653846153846 17.9976851851852  C 36.5769230769231 17.9976851851852  35.0528846153846 17.3659336419753  33.7932692307692 16.1024305555555  C 32.5336538461539 14.8389274691358  31.9038461538461 13.3101851851852  31.9038461538461 11.5162037037037  C 31.9038461538461 9.74151234567898  32.5336538461539 8.21759259259261  33.7932692307692 6.94444444444446  C 35.0528846153846 5.6712962962963  36.5769230769231 5.03472222222217  38.3653846153846 5.03472222222217  C 40.1346153846154 5.03472222222217  41.6538461538462 5.6712962962963  42.9230769230769 6.94444444444446  Z " fill-rule="nonzero" fill="#000000" stroke="none" transform="matrix(1 0 0 1 397 660 )" />
  </g>
</svg>