<?xml version="1.0" encoding="utf-8"?>
<svg version="1.1" xmlns:xlink="http://www.w3.org/1999/xlink" width="32px" height="32px" xmlns="http://www.w3.org/2000/svg">
  <g transform="matrix(1 0 0 1 -314 -665 )">
    <path d="M 24.25 29.06  C 24.4935897435897 28.8066666666667  24.6153846153846 28.5066666666667  24.6153846153846 28.16  C 24.6153846153846 27.8133333333333  24.4935897435897 27.5133333333333  24.25 27.26  C 24.0064102564103 27.0066666666667  23.7179487179487 26.88  23.3846153846154 26.88  C 23.0512820512821 26.88  22.7628205128205 27.0066666666667  22.5192307692308 27.26  C 22.275641025641 27.5133333333333  22.1538461538462 27.8133333333333  22.1538461538462 28.16  C 22.1538461538462 28.5066666666667  22.275641025641 28.8066666666667  22.5192307692308 29.06  C 22.7628205128205 29.3133333333333  23.0512820512821 29.44  23.3846153846154 29.44  C 23.7179487179487 29.44  24.0064102564103 29.3133333333333  24.25 29.06  Z M 29.1730769230769 29.06  C 29.4166666666667 28.8066666666667  29.5384615384615 28.5066666666667  29.5384615384615 28.16  C 29.5384615384615 27.8133333333333  29.4166666666667 27.5133333333333  29.1730769230769 27.26  C 28.9294871794872 27.0066666666667  28.6410256410256 26.88  28.3076923076923 26.88  C 27.974358974359 26.88  27.6858974358974 27.0066666666667  27.4423076923077 27.26  C 27.198717948718 27.5133333333333  27.0769230769231 27.8133333333333  27.0769230769231 28.16  C 27.0769230769231 28.5066666666667  27.198717948718 28.8066666666667  27.4423076923077 29.06  C 27.6858974358974 29.3133333333333  27.974358974359 29.44  28.3076923076923 29.44  C 28.6410256410256 29.44  28.9294871794872 29.3133333333333  29.1730769230769 29.06  Z M 31.4615384615385 22.32  C 31.8205128205128 22.6933333333333  32 23.1466666666667  32 23.68  L 32 30.08  C 32 30.6133333333333  31.8205128205128 31.0666666666667  31.4615384615385 31.44  C 31.1025641025641 31.8133333333333  30.6666666666667 32  30.1538461538462 32  L 1.84615384615385 32  C 1.33333333333333 32  0.897435897435898 31.8133333333333  0.538461538461538 31.44  C 0.179487179487179 31.0666666666667  0 30.6133333333333  0 30.08  L 0 23.68  C 0 23.1466666666667  0.179487179487179 22.6933333333333  0.538461538461538 22.32  C 0.897435897435898 21.9466666666667  1.33333333333333 21.76  1.84615384615385 21.76  L 10.0576923076923 21.76  C 10.3269230769231 22.5066666666667  10.7788461538462 23.12  11.4134615384615 23.6  C 12.0480769230769 24.08  12.7564102564103 24.32  13.5384615384615 24.32  L 18.4615384615385 24.32  C 19.2435897435897 24.32  19.9519230769231 24.08  20.5865384615385 23.6  C 21.2211538461538 23.12  21.6730769230769 22.5066666666667  21.9423076923077 21.76  L 30.1538461538462 21.76  C 30.6666666666667 21.76  31.1025641025641 21.9466666666667  31.4615384615385 22.32  Z M 25.4807692307692 9.34  C 25.8782051282051 9.74  25.9679487179487 10.2  25.75 10.72  C 25.5320512820513 11.2533333333333  25.1538461538462 11.52  24.6153846153846 11.52  L 19.6923076923077 11.52  L 19.6923076923077 20.48  C 19.6923076923077 20.8266666666667  19.5705128205128 21.1266666666667  19.3269230769231 21.38  C 19.0833333333333 21.6333333333333  18.7948717948718 21.76  18.4615384615385 21.76  L 13.5384615384615 21.76  C 13.2051282051282 21.76  12.9166666666667 21.6333333333333  12.6730769230769 21.38  C 12.4294871794872 21.1266666666667  12.3076923076923 20.8266666666667  12.3076923076923 20.48  L 12.3076923076923 11.52  L 7.38461538461539 11.52  C 6.84615384615385 11.52  6.46794871794872 11.2533333333333  6.25 10.72  C 6.03205128205128 10.2  6.12179487179487 9.74  6.51923076923077 9.34  L 15.1346153846154 0.379999999999999  C 15.3653846153846 0.126666666666665  15.6538461538462 0  16 0  C 16.3461538461538 0  16.6346153846154 0.126666666666665  16.8653846153846 0.379999999999999  L 25.4807692307692 9.34  Z " fill-rule="nonzero" fill="#000000" stroke="none" transform="matrix(1 0 0 1 314 665 )" />
  </g>
</svg>