<?xml version="1.0" encoding="utf-8"?>
<svg version="1.1" xmlns:xlink="http://www.w3.org/1999/xlink" width="125px" height="119px" xmlns="http://www.w3.org/2000/svg">
  <g transform="matrix(1 0 0 1 -314 -180 )">
    <path d="M 87.3325892857143 104.689453125  C 95.0055803571429 100.815755208333  101.306733630952 95.55859375  106.236049107143 88.91796875  C 105.212983630952 82.0559895833333  103.178478422619 76.3561197916667  100.132533482143 71.818359375  C 97.0865885416667 67.2805989583333  92.7966889880952 64.6575520833333  87.2628348214286 63.94921875  C 84.1471354166667 67.2252604166667  80.4385230654762 69.7819010416667  76.1369977678571 71.619140625  C 71.8354724702381 73.4563802083333  67.2898065476191 74.375  62.5 74.375  C 57.7101934523809 74.375  53.1645275297619 73.4563802083333  48.8630022321429 71.619140625  C 44.5614769345238 69.7819010416667  40.8528645833333 67.2252604166667  37.7371651785714 63.94921875  C 32.2033110119048 64.6575520833333  27.9134114583333 67.2805989583333  24.8674665178571 71.818359375  C 21.821521577381 76.3561197916667  19.7870163690476 82.0559895833333  18.7639508928571 88.91796875  C 23.6932663690476 95.55859375  29.9944196428571 100.815755208333  37.6674107142857 104.689453125  C 45.3404017857143 108.563151041667  53.6179315476191 110.5  62.5 110.5  C 71.382068452381 110.5  79.6595982142857 108.563151041667  87.3325892857143 104.689453125  Z M 81.4383370535714 60.529296875  C 86.669921875 55.548828125  89.2857142857143 49.5390625  89.2857142857143 42.5  C 89.2857142857143 35.4609375  86.669921875 29.451171875  81.4383370535714 24.470703125  C 76.2067522321429 19.490234375  69.8939732142857 17  62.5 17  C 55.1060267857143 17  48.7932477678571 19.490234375  43.5616629464286 24.470703125  C 38.330078125 29.451171875  35.7142857142857 35.4609375  35.7142857142857 42.5  C 35.7142857142857 49.5390625  38.330078125 55.548828125  43.5616629464286 60.529296875  C 48.7932477678571 65.509765625  55.1060267857143 68  62.5 68  C 69.8939732142857 68  76.2067522321429 65.509765625  81.4383370535714 60.529296875  Z M 120.047433035714 36.390625  C 123.349144345238 43.7395833333333  125 51.4427083333333  125 59.5  C 125 67.5572916666667  123.349144345238 75.2493489583333  120.047433035714 82.576171875  C 116.74572172619 89.9029947916667  112.316313244048 96.2337239583333  106.759207589286 101.568359375  C 101.202101934524 106.902994791667  94.5638020833333 111.141927083333  86.8443080357143 114.28515625  C 79.1248139880952 117.428385416667  71.0100446428571 119  62.5 119  C 54.0364583333333 119  45.9449404761905 117.428385416667  38.2254464285714 114.28515625  C 30.5059523809524 111.141927083333  23.8560267857143 106.9140625  18.2756696428571 101.6015625  C 12.6953125 96.2890625  8.25427827380952 89.9583333333333  4.95256696428571 82.609375  C 1.6508556547619 75.2604166666667  0 67.5572916666667  0 59.5  C 0 51.4427083333333  1.6508556547619 43.7395833333333  4.95256696428571 36.390625  C 8.25427827380952 29.0416666666667  12.6953125 22.7109375  18.2756696428571 17.3984375  C 23.8560267857143 12.0859375  30.5059523809524 7.85807291666666  38.2254464285714 4.71484375  C 45.9449404761905 1.57161458333333  54.0364583333333 0  62.5 0  C 70.9635416666667 0  79.0550595238095 1.57161458333333  86.7745535714286 4.71484375  C 94.4940476190476 7.85807291666666  101.143973214286 12.0859375  106.724330357143 17.3984375  C 112.3046875 22.7109375  116.74572172619 29.0416666666667  120.047433035714 36.390625  Z " fill-rule="nonzero" fill="#000000" stroke="none" transform="matrix(1 0 0 1 314 180 )" />
  </g>
</svg>