<?xml version="1.0" encoding="utf-8"?>
<svg version="1.1" xmlns:xlink="http://www.w3.org/1999/xlink" width="143px" height="120px" xmlns="http://www.w3.org/2000/svg">
  <g transform="matrix(1 0 0 1 -431 -301 )">
    <path d="M 103.060546875 72.5  C 103.060546875 73.1770833333333  102.750217013889 73.7760416666667  102.129557291667 74.296875  L 88.537109375 85.703125  C 87.9164496527778 86.2239583333333  87.2026909722222 86.484375  86.3958333333333 86.484375  C 85.5889756944445 86.484375  84.8752170138889 86.2239583333333  84.2545572916667 85.703125  L 71.5 75  L 58.7454427083333 85.703125  C 58.1247829861111 86.2239583333333  57.4110243055556 86.484375  56.6041666666667 86.484375  C 55.7973090277778 86.484375  55.0835503472222 86.2239583333333  54.462890625 85.703125  L 40.8704427083333 74.296875  C 40.2497829861111 73.7760416666667  39.939453125 73.1770833333333  39.939453125 72.5  C 39.939453125 71.8229166666667  40.2497829861111 71.2239583333333  40.8704427083333 70.703125  L 53.625 60  L 40.8704427083333 49.296875  C 40.2497829861111 48.7760416666667  39.939453125 48.1770833333333  39.939453125 47.5  C 39.939453125 46.8229166666667  40.2497829861111 46.2239583333333  40.8704427083333 45.703125  L 54.462890625 34.296875  C 55.0835503472222 33.7760416666667  55.7973090277778 33.515625  56.6041666666667 33.515625  C 57.4110243055556 33.515625  58.1247829861111 33.7760416666667  58.7454427083333 34.296875  L 71.5 45  L 84.2545572916667 34.296875  C 84.8752170138889 33.7760416666667  85.5889756944445 33.515625  86.3958333333333 33.515625  C 87.2026909722222 33.515625  87.9164496527778 33.7760416666667  88.537109375 34.296875  L 102.129557291667 45.703125  C 102.750217013889 46.2239583333333  103.060546875 46.8229166666667  103.060546875 47.5  C 103.060546875 48.1770833333333  102.750217013889 48.7760416666667  102.129557291667 49.296875  L 89.375 60  L 102.129557291667 70.703125  C 102.750217013889 71.2239583333333  103.060546875 71.8229166666667  103.060546875 72.5  Z M 115.349609375 81.328125  C 119.880425347222 74.8177083333333  122.145833333333 67.7083333333333  122.145833333333 60  C 122.145833333333 52.2916666666667  119.880425347222 45.1822916666667  115.349609375 38.671875  C 110.818793402778 32.1614583333333  104.674262152778 27.0052083333333  96.916015625 23.203125  C 89.1577690972222 19.4010416666667  80.6857638888889 17.5  71.5 17.5  C 62.3142361111111 17.5  53.8422309027778 19.4010416666667  46.083984375 23.203125  C 38.3257378472222 27.0052083333333  32.1812065972222 32.1614583333333  27.650390625 38.671875  C 23.1195746527778 45.1822916666667  20.8541666666667 52.2916666666667  20.8541666666667 60  C 20.8541666666667 67.7083333333333  23.1195746527778 74.8177083333333  27.650390625 81.328125  C 32.1812065972222 87.8385416666667  38.3257378472222 92.9947916666667  46.083984375 96.796875  C 53.8422309027778 100.598958333333  62.3142361111111 102.5  71.5 102.5  C 80.6857638888889 102.5  89.1577690972222 100.598958333333  96.916015625 96.796875  C 104.674262152778 92.9947916666667  110.818793402778 87.8385416666667  115.349609375 81.328125  Z M 133.410807291667 29.8828125  C 139.803602430556 39.0755208333333  143 49.1145833333333  143 60  C 143 70.8854166666667  139.803602430556 80.9244791666667  133.410807291667 90.1171875  C 127.018012152778 99.3098958333333  118.344292534722 106.588541666667  107.3896484375 111.953125  C 96.4350043402778 117.317708333333  84.4717881944444 120  71.5 120  C 58.5282118055556 120  46.5649956597222 117.317708333333  35.6103515625 111.953125  C 24.6557074652778 106.588541666667  15.9819878472222 99.3098958333333  9.58919270833333 90.1171875  C 3.19639756944444 80.9244791666667  0 70.8854166666667  0 60  C 0 49.1145833333333  3.19639756944444 39.0755208333333  9.58919270833333 29.8828125  C 15.9819878472222 20.6901041666667  24.6557074652778 13.4114583333333  35.6103515625 8.046875  C 46.5649956597222 2.68229166666666  58.5282118055556 0  71.5 0  C 84.4717881944444 0  96.4350043402778 2.68229166666666  107.3896484375 8.046875  C 118.344292534722 13.4114583333333  127.018012152778 20.6901041666667  133.410807291667 29.8828125  Z " fill-rule="nonzero" fill="#000000" stroke="none" transform="matrix(1 0 0 1 431 301 )" />
  </g>
</svg>