<?xml version="1.0" encoding="utf-8"?>
<svg version="1.1" xmlns:xlink="http://www.w3.org/1999/xlink" width="171px" height="142px" xmlns="http://www.w3.org/2000/svg">
  <g transform="matrix(1 0 0 1 -417 -355 )">
    <path d="M 132.48046875 59.1666666666667  C 132.48046875 60.7690972222222  131.775390625 62.1558159722222  130.365234375 63.3268229166667  L 83.384765625 102.33984375  C 81.974609375 103.510850694444  80.3046875 104.096354166667  78.375 104.096354166667  C 76.4453125 104.096354166667  74.775390625 103.510850694444  73.365234375 102.33984375  L 40.634765625 75.16015625  C 39.224609375 73.9891493055555  38.51953125 72.6024305555555  38.51953125 71  C 38.51953125 69.3975694444444  39.224609375 68.0108506944444  40.634765625 66.83984375  L 51.990234375 57.41015625  C 53.400390625 56.2391493055556  55.0703125 55.6536458333333  57 55.6536458333333  C 58.9296875 55.6536458333333  60.599609375 56.2391493055556  62.009765625 57.41015625  L 78.375 71  L 108.990234375 45.5768229166667  C 110.400390625 44.4058159722222  112.0703125 43.8203125  114 43.8203125  C 115.9296875 43.8203125  117.599609375 44.4058159722222  119.009765625 45.5768229166667  L 130.365234375 55.0065104166667  C 131.775390625 56.1775173611111  132.48046875 57.5642361111111  132.48046875 59.1666666666667  Z M 137.935546875 96.23828125  C 143.353515625 88.5342881944444  146.0625 80.1215277777778  146.0625 71  C 146.0625 61.8784722222222  143.353515625 53.4657118055556  137.935546875 45.76171875  C 132.517578125 38.0577256944444  125.169921875 31.9561631944444  115.892578125 27.45703125  C 106.615234375 22.9578993055556  96.484375 20.7083333333333  85.5 20.7083333333333  C 74.515625 20.7083333333333  64.384765625 22.9578993055556  55.107421875 27.45703125  C 45.830078125 31.9561631944444  38.482421875 38.0577256944444  33.064453125 45.76171875  C 27.646484375 53.4657118055556  24.9375 61.8784722222222  24.9375 71  C 24.9375 80.1215277777778  27.646484375 88.5342881944444  33.064453125 96.23828125  C 38.482421875 103.942274305556  45.830078125 110.043836805556  55.107421875 114.54296875  C 64.384765625 119.042100694444  74.515625 121.291666666667  85.5 121.291666666667  C 96.484375 121.291666666667  106.615234375 119.042100694444  115.892578125 114.54296875  C 125.169921875 110.043836805556  132.517578125 103.942274305556  137.935546875 96.23828125  Z M 159.533203125 35.361328125  C 167.177734375 46.2393663194444  171 58.1189236111111  171 71  C 171 83.8810763888889  167.177734375 95.7606336805555  159.533203125 106.638671875  C 151.888671875 117.516710069444  141.5166015625 126.129774305556  128.4169921875 132.477864583333  C 115.3173828125 138.825954861111  101.01171875 142  85.5 142  C 69.98828125 142  55.6826171875 138.825954861111  42.5830078125 132.477864583333  C 29.4833984375 126.129774305556  19.111328125 117.516710069444  11.466796875 106.638671875  C 3.822265625 95.7606336805555  0 83.8810763888889  0 71  C 0 58.1189236111111  3.822265625 46.2393663194444  11.466796875 35.361328125  C 19.111328125 24.4832899305556  29.4833984375 15.8702256944444  42.5830078125 9.52213541666666  C 55.6826171875 3.17404513888888  69.98828125 0  85.5 0  C 101.01171875 0  115.3173828125 3.17404513888888  128.4169921875 9.52213541666666  C 141.5166015625 15.8702256944444  151.888671875 24.4832899305556  159.533203125 35.361328125  Z " fill-rule="nonzero" fill="#000000" stroke="none" transform="matrix(1 0 0 1 417 355 )" />
  </g>
</svg>