<?xml version="1.0" encoding="utf-8"?>
<svg version="1.1" xmlns:xlink="http://www.w3.org/1999/xlink" width="58px" height="44px" xmlns="http://www.w3.org/2000/svg">
  <g transform="matrix(1 0 0 1 -473 -759 )">
    <path d="M 29 42.0357142857143  C 29.3717948717949 42.0357142857143  29.5576923076923 41.9047619047619  29.5576923076923 41.6428571428571  C 29.5576923076923 41.3809523809524  29.3717948717949 41.25  29 41.25  C 27.6290064102564 41.25  26.4497195512821 40.9021577380952  25.4621394230769 40.2064732142857  C 24.4745592948718 39.5107886904762  23.9807692307692 38.6800595238095  23.9807692307692 37.7142857142857  C 23.9807692307692 37.4523809523809  23.7948717948718 37.3214285714286  23.4230769230769 37.3214285714286  C 23.0512820512821 37.3214285714286  22.8653846153846 37.4523809523809  22.8653846153846 37.7142857142857  C 22.8653846153846 38.9092261904762  23.4637419871795 39.9281994047619  24.6604567307692 40.7712053571429  C 25.857171474359 41.6142113095238  27.3036858974359 42.0357142857143  29 42.0357142857143  Z M 54.828125 32.4107142857143  C 55.7808493589744 33.1636904761905  56.838141025641 33.8839285714286  58 34.5714285714286  C 58 35.4226190476191  57.5584935897436 36.1592261904762  56.6754807692308 36.78125  C 55.792467948718 37.4032738095238  54.7467948717949 37.7142857142857  53.5384615384615 37  L 37.9230769230769 37  C 37.9230769230769 39.4494047619048  37.0516826923077 40.9308035714286  35.3088942307692 42.1584821428571  C 33.5661057692308 43.3861607142857  31.463141025641 44  29 44  C 26.536858974359 44  24.4338942307692 43.3861607142857  22.6911057692308 42.1584821428571  C 20.9483173076923 40.9308035714286  20.0769230769231 39.4494047619048  20.0769230769231 37  L 4.46153846153846 37  C 3.25320512820513 37.7142857142857  2.20753205128205 37.4032738095238  1.32451923076923 36.78125  C 0.44150641025641 36.1592261904762  0 35.4226190476191  0 34.5714285714286  C 1.16185897435897 33.8839285714286  2.21915064102564 33.1636904761905  3.171875 32.4107142857143  C 4.12459935897436 31.6577380952381  5.11217948717949 30.6796875  6.13461538461538 29.4765625  C 7.15705128205128 28.2734375  8.02263621794872 26.9761904761905  8.73137019230769 25.5848214285714  C 9.44010416666667 24.1934523809524  10.0210336538462 22.5074404761905  10.4741586538462 20.5267857142857  C 10.9272836538462 18.546130952381  11.1538461538462 16.4181547619048  11.1538461538462 14.1428571428571  C 11.1538461538462 11.6547619047619  12.5132211538462 9.34263392857143  15.2319711538462 7.20647321428571  C 17.9507211538462 5.0703125  21.5176282051282 3.77306547619047  25.9326923076923 3.31473214285714  C 25.7467948717949 3.00372023809523  25.6538461538462 2.68452380952381  25.6538461538462 2.35714285714286  C 25.6538461538462 1.70238095238095  25.9791666666667 1.14583333333333  26.6298076923077 0.6875  C 27.2804487179487 0.229166666666668  28.0705128205128 0  29 0  C 29.9294871794872 0  30.7195512820513 0.229166666666668  31.3701923076923 0.6875  C 32.0208333333333 1.14583333333333  32.3461538461538 1.70238095238095  32.3461538461538 2.35714285714286  C 32.3461538461538 2.68452380952381  32.2532051282051 3.00372023809523  32.0673076923077 3.31473214285714  C 36.4823717948718 3.77306547619047  40.0492788461538 5.0703125  42.7680288461538 7.20647321428571  C 45.4867788461538 9.34263392857143  46.8461538461538 11.6547619047619  46.8461538461538 14.1428571428571  C 46.8461538461538 16.4181547619048  47.0727163461538 18.546130952381  47.5258413461538 20.5267857142857  C 47.9789663461538 22.5074404761905  48.5598958333333 24.1934523809524  49.2686298076923 25.5848214285714  C 49.9773637820513 26.9761904761905  50.8429487179487 28.2734375  51.8653846153846 29.4765625  C 52.8878205128205 30.6796875  53.8754006410257 31.6577380952381  54.828125 32.4107142857143  Z " fill-rule="nonzero" fill="#000000" stroke="none" transform="matrix(1 0 0 1 473 759 )" />
  </g>
</svg>