<?xml version="1.0" encoding="utf-8"?>
<svg version="1.1" xmlns:xlink="http://www.w3.org/1999/xlink" width="105px" height="92px" xmlns="http://www.w3.org/2000/svg">
  <g transform="matrix(1 0 0 1 -449 -436 )">
    <path d="M 59.4278953229399 77.3209134615385  C 59.7981625835189 76.9707532051282  59.9832962138085 76.5376602564102  60 76.0216346153846  L 60 65.5168269230769  C 59.9832962138085 65.0008012820513  59.7981625835189 64.5677083333333  59.4278953229399 64.2175480769231  C 59.0576280623608 63.8673878205128  58.619153674833 63.6923076923077  58.1124721603564 63  L 46.8875278396437 63  C 46.380846325167 63.6923076923077  45.9423719376392 63.8673878205128  45.5721046770601 64.2175480769231  C 45.2018374164811 64.5677083333333  45.0167037861915 65.0008012820513  45 65.5168269230769  L 45 76.0216346153846  C 45.0167037861915 76.5376602564102  45.2018374164811 76.9707532051282  45.5721046770601 77.3209134615385  C 45.9423719376392 77.6710737179487  46.380846325167 77.8461538461538  46.8875278396437 77  L 58.1124721603564 77  C 58.619153674833 77.8461538461538  59.0576280623608 77.6710737179487  59.4278953229399 77.3209134615385  Z M 59.2525055679287 56.2560096153846  C 59.6227728285078 56.0164262820513  59.8273942093541 55.7123397435897  59.8663697104677 55.34375  L 60.9187082405345 29.9663461538462  C 60.9187082405345 29.5240384615385  60.7238307349666 29.1738782051282  60.3340757238307 28.9158653846154  C 59.8273942093541 28.5104166666667  59.3596881959911 28.3076923076923  58.9309576837417 29  L 46.0690423162583 29  C 45.6403118040089 28.3076923076923  45.1726057906459 28.5104166666667  44.6659242761693 28.9158653846154  C 44.2761692650334 29.1738782051282  44.0812917594655 29.5608974358974  44.0812917594655 30.0769230769231  L 45.0751670378619 55.34375  C 45.0751670378619 55.7123397435897  45.2700445434298 56.0164262820513  45.6597995545657 56.2560096153846  C 46.0495545657016 56.4955929487179  46.5172605790646 56.6153846153846  47.0629175946548 56  L 57.8786191536748 56  C 58.424276169265 56.6153846153846  58.8822383073497 56.4955929487179  59.2525055679287 56.2560096153846  Z M 56.3001113585746 0.995192307692309  C 57.4693763919822 1.65865384615385  58.3853006681515 2.56169871794871  59.0478841870824 3.70432692307693  L 103.947661469933 81.5504807692308  C 105.311804008909 83.8725961538462  105.272828507795 86.1947115384615  103.830734966592 88.5168269230769  C 103.168151447661 89.5857371794872  102.261971046771 90.4334935897436  101.11219376392 91.0600961538462  C 99.9624164810691 91.6866987179487  98.7249443207127 92  97.3997772828508 92  L 7.60022271714922 92  C 6.27505567928731 92  5.03758351893096 91.6866987179487  3.88780623608018 91.0600961538462  C 2.7380289532294 90.4334935897436  1.83184855233853 89.5857371794872  1.16926503340757 88.5168269230769  C -0.2728285077951 86.1947115384615  -0.311804008908686 83.8725961538462  1.05233853006682 81.5504807692308  L 45.9521158129176 3.70432692307693  C 46.6146993318486 2.56169871794871  47.5306236080178 1.65865384615385  48.6998886414254 0.995192307692309  C 49.869153674833 0.331730769230773  51.1358574610245 0  52.5 0  C 53.8641425389755 0  55.130846325167 0.331730769230773  56.3001113585746 0.995192307692309  Z " fill-rule="nonzero" fill="#000000" stroke="none" transform="matrix(1 0 0 1 449 436 )" />
  </g>
</svg>