<?xml version="1.0" encoding="utf-8"?>
<svg version="1.1" xmlns:xlink="http://www.w3.org/1999/xlink" width="33px" height="30px" xmlns="http://www.w3.org/2000/svg">
  <g transform="matrix(1 0 0 1 -704 -547 )">
    <path d="M 16.5 28.6607142857143  C 16.7115384615385 28.6607142857143  16.8173076923077 28.5714285714286  16.8173076923077 28.3928571428571  C 16.8173076923077 28.2142857142857  16.7115384615385 28.125  16.5 28.125  C 15.7199519230769 28.125  15.0489783653846 27.8878348214286  14.4870793269231 27.4135044642857  C 13.9251802884615 26.9391741071429  13.6442307692308 26.3727678571429  13.6442307692308 25.7142857142857  C 13.6442307692308 25.5357142857143  13.5384615384615 25.4464285714286  13.3269230769231 25.4464285714286  C 13.1153846153846 25.4464285714286  13.0096153846154 25.5357142857143  13.0096153846154 25.7142857142857  C 13.0096153846154 26.5290178571429  13.3500600961538 27.2237723214286  14.0309495192308 27.7985491071429  C 14.7118389423077 28.3733258928571  15.5348557692308 28.6607142857143  16.5 28.6607142857143  Z M 31.1953125 22.0982142857143  C 31.7373798076923 22.6116071428571  32.3389423076923 23.1026785714286  33 23.5714285714286  C 33 24.1517857142857  32.7487980769231 24.6540178571429  32.2463942307692 25.078125  C 31.7439903846154 25.5022321428571  31.1490384615385 25.7142857142857  30.4615384615385 25.7142857142857  L 21.5769230769231 25.7142857142857  C 21.5769230769231 26.8973214285714  21.0811298076923 27.9073660714286  20.0895432692308 28.7444196428571  C 19.0979567307692 29.5814732142857  17.9014423076923 30  16.5 30  C 15.0985576923077 30  13.9020432692308 29.5814732142857  12.9104567307692 28.7444196428571  C 11.9188701923077 27.9073660714286  11.4230769230769 26.8973214285714  11.4230769230769 25.7142857142857  L 2.53846153846154 25.7142857142857  C 1.85096153846154 25.7142857142857  1.25600961538462 25.5022321428571  0.753605769230769 25.078125  C 0.251201923076923 24.6540178571429  0 24.1517857142857  0 23.5714285714286  C 0.661057692307693 23.1026785714286  1.26262019230769 22.6116071428571  1.8046875 22.0982142857143  C 2.34675480769231 21.5848214285714  2.90865384615385 20.91796875  3.49038461538462 20.09765625  C 4.07211538461539 19.27734375  4.56460336538462 18.3928571428571  4.96784855769231 17.4441964285714  C 5.37109375 16.4955357142857  5.70162259615385 15.3459821428571  5.95943509615385 13.9955357142857  C 6.21724759615385 12.6450892857143  6.34615384615385 11.1941964285714  6.34615384615385 9.64285714285714  C 6.34615384615385 7.94642857142857  7.11959134615385 6.36997767857143  8.66646634615384 4.91350446428571  C 10.2133413461538 3.45703125  12.2427884615385 2.57254464285714  14.7548076923077 2.26004464285714  C 14.6490384615385 2.04799107142857  14.5961538461538 1.83035714285714  14.5961538461538 1.60714285714286  C 14.5961538461538 1.16071428571428  14.78125 0.781249999999999  15.1514423076923 0.46875  C 15.5216346153846 0.156250000000001  15.9711538461538 0  16.5 0  C 17.0288461538462 0  17.4783653846154 0.156250000000001  17.8485576923077 0.46875  C 18.21875 0.781249999999999  18.4038461538462 1.16071428571428  18.4038461538462 1.60714285714286  C 18.4038461538462 1.83035714285714  18.3509615384615 2.04799107142857  18.2451923076923 2.26004464285714  C 20.7572115384615 2.57254464285714  22.7866586538462 3.45703125  24.3335336538462 4.91350446428571  C 25.8804086538462 6.36997767857143  26.6538461538462 7.94642857142857  26.6538461538462 9.64285714285714  C 26.6538461538462 11.1941964285714  26.7827524038462 12.6450892857143  27.0405649038462 13.9955357142857  C 27.2983774038462 15.3459821428571  27.62890625 16.4955357142857  28.0321514423077 17.4441964285714  C 28.4353966346154 18.3928571428571  28.9278846153846 19.27734375  29.5096153846154 20.09765625  C 30.0913461538462 20.91796875  30.6532451923077 21.5848214285714  31.1953125 22.0982142857143  Z " fill-rule="nonzero" fill="#000000" stroke="none" transform="matrix(1 0 0 1 704 547 )" />
  </g>
</svg>