<?xml version="1.0" encoding="utf-8"?>
<svg version="1.1" xmlns:xlink="http://www.w3.org/1999/xlink" width="37px" height="22px" xmlns="http://www.w3.org/2000/svg">
  <g transform="matrix(1 0 0 1 -267 -197 )">
    <path d="M 36.5423177083333 17.9265625  C 36.8474392361111 18.1442708333333  37 18.4020833333333  37 18.7  L 37 20.9  C 37 21.1979166666667  36.8474392361111 21.4557291666667  36.5423177083333 21.6734375  C 36.2371961805555 21.8911458333333  35.8758680555555 22  35.4583333333333 22  L 1.54166666666669 22  C 1.12413194444446 22  0.762803819444457 21.8911458333333  0.457682291666686 21.6734375  C 0.152560763888914 21.4557291666667  0 21.1979166666667  0 20.9  L 0 18.7  C 0 18.4020833333333  0.152560763888914 18.1442708333333  0.457682291666686 17.9265625  C 0.762803819444457 17.7088541666667  1.12413194444446 17.6  1.54166666666669 17.6  L 35.4583333333333 17.6  C 35.8758680555555 17.6  36.2371961805555 17.7088541666667  36.5423177083333 17.9265625  Z M 36.5423177083333 9.12656250000001  C 36.8474392361111 9.34427083333333  37 9.60208333333333  37 9.90000000000001  L 37 12.1  C 37 12.3979166666667  36.8474392361111 12.6557291666667  36.5423177083333 12.8734375  C 36.2371961805555 13.0911458333333  35.8758680555555 13.2  35.4583333333333 13  L 1.54166666666669 13  C 1.12413194444446 13.2  0.762803819444457 13.0911458333333  0.457682291666686 12.8734375  C 0.152560763888914 12.6557291666667  0 12.3979166666667  0 12.1  L 0 9.90000000000001  C 0 9.60208333333333  0.152560763888914 9.34427083333333  0.457682291666686 9.12656250000001  C 0.762803819444457 8.90885416666666  1.12413194444446 8.80000000000001  1.54166666666669 9  L 35.4583333333333 9  C 35.8758680555555 8.80000000000001  36.2371961805555 8.90885416666666  36.5423177083333 9.12656250000001  Z M 36.5423177083333 0.326562499999994  C 36.8474392361111 0.544270833333343  37 0.802083333333343  37 1.09999999999999  L 37 3.30000000000001  C 37 3.59791666666666  36.8474392361111 3.85572916666666  36.5423177083333 4.07343750000001  C 36.2371961805555 4.29114583333333  35.8758680555555 4.40000000000001  35.4583333333333 4.40000000000001  L 15 4.40000000000001  L 1.54166666666669 4.40000000000001  C 1.12413194444446 4.40000000000001  0.762803819444457 4.29114583333333  0.457682291666686 4.07343750000001  C 0.152560763888914 3.85572916666666  0 3.59791666666666  0 3.30000000000001  L 0 1.09999999999999  C 0 0.802083333333343  0.152560763888914 0.544270833333343  0.457682291666686 0.326562499999994  C 0.762803819444457 0.108854166666674  1.12413194444446 0  1.54166666666669 0  L 35.4583333333333 0  C 35.8758680555555 0  36.2371961805555 0.108854166666674  36.5423177083333 0.326562499999994  Z " fill-rule="nonzero" fill="#000000" stroke="none" transform="matrix(1 0 0 1 267 197 )" />
  </g>
</svg>