<?xml version="1.0" encoding="utf-8"?>
<svg version="1.1" xmlns:xlink="http://www.w3.org/1999/xlink" width="35px" height="34px" xmlns="http://www.w3.org/2000/svg">
  <g transform="matrix(1 0 0 1 -451 -284 )">
    <path d="M 17.5 32.4821428571429  C 17.724358974359 32.4821428571429  17.8365384615385 32.3809523809524  17.8365384615385 32.1785714285714  C 17.8365384615385 31.9761904761905  17.724358974359 31.875  17.5 31.875  C 16.6726762820513 31.875  15.9610376602564 31.606212797619  15.3650841346154 31.0686383928571  C 14.7691306089744 30.5310639880952  14.4711538461538 29.8891369047619  14.4711538461538 29.1428571428571  C 14.4711538461538 28.9404761904762  14.3589743589744 28.8392857142857  14.1346153846154 28.8392857142857  C 13.9102564102564 28.8392857142857  13.7980769230769 28.9404761904762  13.7980769230769 29.1428571428571  C 13.7980769230769 30.0662202380952  14.1591546474359 30.8536086309524  14.8813100961538 31.5050223214286  C 15.6034655448718 32.1564360119048  16.4763621794872 32.4821428571429  17.5 32.4821428571429  Z M 33.0859375 25.0446428571429  C 33.6608573717949 25.6264880952381  34.2988782051282 26.1830357142857  35 26.7142857142857  C 35 27.3720238095238  34.7335737179487 27.9412202380952  34.2007211538462 28.421875  C 33.6678685897436 28.9025297619048  33.036858974359 29.1428571428571  32.3076923076923 29.1428571428571  L 22.8846153846154 29.1428571428571  C 22.8846153846154 30.483630952381  22.3587740384615 31.6283482142857  21.3070913461538 32.5770089285714  C 20.2554086538462 33.5256696428571  18.9863782051282 34  17.5 34  C 16.0136217948718 34  14.7445913461538 33.5256696428571  13.6929086538462 32.5770089285714  C 12.6412259615385 31.6283482142857  12.1153846153846 30.483630952381  12.1153846153846 29.1428571428571  L 2.69230769230769 29.1428571428571  C 1.96314102564103 29.1428571428571  1.33213141025641 28.9025297619048  0.799278846153846 28.421875  C 0.266426282051282 27.9412202380952  0 27.3720238095238  0 26.7142857142857  C 0.701121794871795 26.1830357142857  1.33914262820513 25.6264880952381  1.9140625 25.0446428571429  C 2.48898237179487 24.4627976190476  3.0849358974359 23.70703125  3.70192307692308 22.77734375  C 4.31891025641026 21.84765625  4.84124599358974 20.8452380952381  5.26893028846154 19.7700892857143  C 5.69661458333333 18.6949404761905  6.04717548076923 17.3921130952381  6.32061298076923 15.8616071428571  C 6.59405048076923 14.3311011904762  6.73076923076923 12.6867559523809  6.73076923076923 10.9285714285714  C 6.73076923076923 9.00595238095238  7.55108173076923 7.21930803571429  9.19170673076923 5.56863839285714  C 10.8323317307692 3.91796875  12.9847756410256 2.91555059523809  15.6490384615385 2.56138392857143  C 15.536858974359 2.32105654761904  15.4807692307692 2.07440476190476  15.4807692307692 1.82142857142857  C 15.4807692307692 1.31547619047619  15.6770833333333 0.885416666666665  16.0697115384615 0.53125  C 16.4623397435897 0.177083333333335  16.9391025641026 0  17.5 0  C 18.0608974358974 0  18.5376602564103 0.177083333333335  18.9302884615385 0.53125  C 19.3229166666667 0.885416666666665  19.5192307692308 1.31547619047619  19.5192307692308 1.82142857142857  C 19.5192307692308 2.07440476190476  19.463141025641 2.32105654761904  19.3509615384615 2.56138392857143  C 22.0152243589744 2.91555059523809  24.1676682692308 3.91796875  25.8082932692308 5.56863839285714  C 27.4489182692308 7.21930803571429  28.2692307692308 9.00595238095238  28.2692307692308 10.9285714285714  C 28.2692307692308 12.6867559523809  28.4059495192308 14.3311011904762  28.6793870192308 15.8616071428571  C 28.9528245192308 17.3921130952381  29.3033854166667 18.6949404761905  29.7310697115385 19.7700892857143  C 30.1587540064103 20.8452380952381  30.6810897435897 21.84765625  31.2980769230769 22.77734375  C 31.9150641025641 23.70703125  32.5110176282051 24.4627976190476  33.0859375 25.0446428571429  Z " fill-rule="nonzero" fill="#000000" stroke="none" transform="matrix(1 0 0 1 451 284 )" />
  </g>
</svg>