<?xml version="1.0" encoding="utf-8"?>
<svg version="1.1" xmlns:xlink="http://www.w3.org/1999/xlink" width="45px" height="44px" xmlns="http://www.w3.org/2000/svg">
  <g transform="matrix(1 0 0 1 -625 -381 )">
    <path d="M 647.5 381  C 660.1 381  670 390.68  670 403  C 670 415.32  660.1 425  647.5 425  C 634.9 425  625 415.32  625 403  C 625 390.68  634.9 381  647.5 381  Z " fill-rule="nonzero" fill="#ffffff" stroke="none" />
    <path d="M 647.5 381.5  C 659.82 381.5  669.5 390.96  669.5 403  C 669.5 415.04  659.82 424.5  647.5 424.5  C 635.18 424.5  625.5 415.04  625.5 403  C 625.5 390.96  635.18 381.5  647.5 381.5  Z " stroke-width="1" stroke="#797979" fill="none" />
  </g>
</svg>