<?xml version="1.0" encoding="utf-8"?>
<svg version="1.1" xmlns:xlink="http://www.w3.org/1999/xlink" width="37px" height="40px" xmlns="http://www.w3.org/2000/svg">
  <g transform="matrix(1 0 0 1 -633 -285 )">
    <path d="M 11.7727272727273 21.5384615384615  L 15.1363636363636 36.9230769230769  L 17.6590909090909 26.1538461538462  L 15.1363636363636 23.0769230769231  L 11.7727272727273 21.5384615384615  Z M 19.3409090909091 26.1538461538462  L 21.8636363636364 36.9230769230769  L 25.2272727272727 21.5384615384615  L 21.8636363636364 23.0769230769231  L 19.3409090909091 26.1538461538462  Z M 25.9630681818182 13.2932692307692  C 25.9981060606061 13.1490384615385  26.0331439393939 12.9326923076923  26.0681818181818 12.6442307692308  C 26.0331439393939 12.5801282051282  25.9981060606061 12.5320512820513  25.9630681818182 12.5  C 25.7878787878788 12.3717948717949  24.9469696969697 12.3076923076923  23.4403409090909 12.3076923076923  C 22.2140151515152 12.3076923076923  20.7511837121212 12.4599358974359  19.0518465909091 12.7644230769231  C 18.9292140151515 12.7964743589744  18.7452651515152 12.8125  18.5 12.8125  C 18.2547348484849 12.8125  18.0707859848485 12.7964743589744  17.9481534090909 12.7644230769231  C 16.2488162878788 12.4599358974359  14.7859848484848 12.3076923076923  13.5596590909091 12.3076923076923  C 12.0530303030303 12.3076923076923  11.2121212121212 12.3717948717949  11.0369318181818 12.5  C 11.0018939393939 12.5320512820513  10.9668560606061 12.5801282051282  10.9318181818182 12.6442307692308  C 10.9668560606061 12.9326923076923  11.0018939393939 13.1490384615385  11.0369318181818 13.2932692307692  C 11.0719696969697 13.3413461538462  11.137665719697 13.3934294871795  11.2340198863636 13.4495192307692  C 11.3303740530303 13.505608974359  11.3960700757576 13.5897435897436  11.4311079545455 13.7019230769231  C 11.4661458333333 13.7660256410256  11.5318418560606 13.9302884615385  11.6281960227273 14.1947115384615  C 11.7245501893939 14.4591346153846  11.7858664772727 14.6233974358974  11.8121448863636 14.6875  C 11.8384232954545 14.7516025641026  11.9041193181818 14.8878205128205  12.0092329545455 15.0961538461538  C 12.1143465909091 15.3044871794872  12.1888020833333 15.4407051282051  12.2325994318182 15.5048076923077  C 12.276396780303 15.5689102564103  12.3552320075758 15.6810897435897  12.4691051136364 15.8413461538462  C 12.582978219697 16.0016025641026  12.6880918560606 16.1097756410256  12.7844460227273 16.1658653846154  C 12.8808001893939 16.2219551282051  13.0034327651515 16.2980769230769  13.15234375 16.3942307692308  C 13.3012547348485 16.4903846153846  13.4545454545455 16.5544871794872  13.6122159090909 16.5865384615385  C 13.7698863636364 16.6185897435897  13.9494554924242 16.650641025641  14.1509232954545 16.6826923076923  C 14.3523910984848 16.7147435897436  14.5669981060606 16.7307692307692  14.7947443181818 16.7307692307692  C 15.4254261363636 16.7307692307692  15.9422348484848 16.630608974359  16.3451704545455 16.4302884615385  C 16.7481060606061 16.2299679487179  17.0327888257576 15.9895833333333  17.19921875 15.7091346153846  C 17.3656486742424 15.4286858974359  17.4926609848485 15.1522435897436  17.5802556818182 14.8798076923077  C 17.6678503787879 14.6073717948718  17.768584280303 14.3709935897436  17.8824573863636 14.1706730769231  C 17.9963304924242 13.9703525641026  18.1496212121212 13.8701923076923  18.3423295454545 13.8701923076923  L 18.6576704545455 13.8701923076923  C 18.8503787878788 13.8701923076923  19.0036695075758 13.9703525641026  19.1175426136364 14.1706730769231  C 19.231415719697 14.3709935897436  19.3321496212121 14.6073717948718  19.4197443181818 14.8798076923077  C 19.5073390151515 15.1522435897436  19.6343513257576 15.4286858974359  19.80078125 15.7091346153846  C 19.9672111742424 15.9895833333333  20.2518939393939 16.2299679487179  20.6548295454545 16.4302884615385  C 21.0577651515152 16.630608974359  21.5745738636364 16.7307692307692  22.2052556818182 16.7307692307692  C 22.4330018939394 16.7307692307692  22.6476089015152 16.7147435897436  22.8490767045455 16.6826923076923  C 23.0505445075758 16.650641025641  23.2301136363636 16.6185897435897  23.3877840909091 16.5865384615385  C 23.5454545454545 16.5544871794872  23.6987452651515 16.4903846153846  23.84765625 16.3942307692308  C 23.9965672348485 16.2980769230769  24.1191998106061 16.2219551282051  24.2155539772727 16.1658653846154  C 24.3119081439394 16.1097756410256  24.417021780303 16.0016025641026  24.5308948863636 15.8413461538462  C 24.6447679924242 15.6810897435897  24.723603219697 15.5689102564103  24.7674005681818 15.5048076923077  C 24.8111979166667 15.4407051282051  24.8856534090909 15.3044871794872  24.9907670454545 15.0961538461538  C 25.0958806818182 14.8878205128205  25.1615767045455 14.7516025641026  25.1878551136364 14.6875  C 25.2141335227273 14.6233974358974  25.2754498106061 14.4591346153846  25.3718039772727 14.1947115384615  C 25.4681581439394 13.9302884615385  25.5338541666667 13.7660256410256  25.5688920454545 13.7019230769231  C 25.6039299242424 13.5897435897436  25.6696259469697 13.505608974359  25.7659801136364 13.4495192307692  C 25.862334280303 13.3934294871795  25.9280303030303 13.3413461538462  25.9630681818182 13.2932692307692  Z M 36.7897727272727 30.2043269230769  C 36.9299242424242 31.3501602564103  37 32.5400641025641  37 33.7740384615385  C 37 35.713141025641  36.3605587121212 37.2355769230769  35.0816761363636 38.3413461538462  C 33.8027935606061 39.4471153846154  32.1034564393939 40  29.9836647727273 40  L 7.01633522727273 40  C 4.89654356060606 40  3.19720643939394 39.4471153846154  1.91832386363636 38.3413461538462  C 0.639441287878788 37.2355769230769  0 35.713141025641  0 33.7740384615385  C 0 32.7964743589744  0.0394176136363636 31.8509615384615  0.118252840909091 30.9375  C 0.197088068181818 30.0240384615385  0.363517992424242 29.0184294871795  0.617542613636364 27.9206730769231  C 0.871567234848485 26.8229166666667  1.20004734848485 25.8333333333333  1.60298295454545 24.9519230769231  C 2.00591856060606 24.0705128205128  2.56214488636364 23.2411858974359  3.27166193181818 22.4639423076923  C 3.98117897727273 21.6866987179487  4.80018939393939 21.0897435897436  5.72869318181818 20.6730769230769  L 3.36363636363636 15.3846153846154  L 8.98721590909091 15.3846153846154  C 8.60179924242424 14.3589743589744  8.40909090909091 13.3333333333333  8.40909090909091 12.3076923076923  C 8.40909090909091 12.1153846153846  8.42660984848485 11.8589743589744  8.46164772727273 11.5384615384615  C 5.06297348484849 10.8974358974359  3.36363636363636 10.1282051282051  3.36363636363636 9.23076923076923  C 3.36363636363636 8.31730769230769  5.203125 7.52403846153846  8.88210227272727 6.85096153846154  C 9.17992424242424 5.85737179487179  9.63103693181818 4.78365384615385  10.2354403409091 3.62980769230769  C 10.83984375 2.47596153846154  11.4573863636364 1.5625  12.0880681818182 0.889423076923075  C 12.6486742424242 0.296474358974361  13.3143939393939 0  14.0852272727273 0  C 14.6107954545455 0  15.3465909090909 0.248397435897441  16.2926136363636 0.745192307692308  C 17.2386363636364 1.24198717948718  17.9744318181818 1.49038461538462  18.5 1.49038461538462  C 19.0255681818182 1.49038461538462  19.7613636363636 1.24198717948718  20.7073863636364 0.745192307692308  C 21.6534090909091 0.248397435897441  22.3892045454545 0  22.9147727272727 0  C 23.6856060606061 0  24.3513257575758 0.296474358974361  24.9119318181818 0.889423076923075  C 25.5426136363636 1.5625  26.16015625 2.47596153846154  26.7645596590909 3.62980769230769  C 27.3689630681818 4.78365384615385  27.8200757575758 5.85737179487179  28.1178977272727 6.85096153846154  C 31.796875 7.52403846153846  33.6363636363636 8.31730769230769  33.6363636363636 9.23076923076923  C 33.6363636363636 10.1282051282051  31.9370265151515 10.8974358974359  28.5383522727273 11.5384615384615  C 28.6609848484849 12.8365384615385  28.4857954545455 14.1185897435897  28.0127840909091 15.3846153846154  L 33.6363636363636 15.3846153846154  L 31.4815340909091 20.7932692307692  C 32.5852272727273 21.3221153846154  33.5268702651515 22.0953525641026  34.3064630681818 23.1129807692308  C 35.0860558712121 24.130608974359  35.6598011363636 25.2804487179487  36.0276988636364 26.5625  C 36.3955965909091 27.8445512820513  36.6496212121212 29.0584935897436  36.7897727272727 30.2043269230769  Z " fill-rule="nonzero" fill="#000000" stroke="none" transform="matrix(1 0 0 1 633 285 )" />
  </g>
</svg>