<?xml version="1.0" encoding="utf-8"?>
<svg version="1.1" xmlns:xlink="http://www.w3.org/1999/xlink" width="99px" height="122px" xmlns="http://www.w3.org/2000/svg">
  <g transform="matrix(1 0 0 1 -261 -301 )">
    <path d="M 82.5 34.8571428571429  C 82.5 41.5290178571429  80.802734375 47.7016369047619  77.408203125 53.375  C 79.427734375 54.0104166666667  81.3505859375 54.8727678571429  83.1767578125 55.9620535714286  C 85.0029296875 57.0513392857143  86.9150390625 58.7079613095238  88.9130859375 60.9319196428571  C 90.9111328125 63.1558779761905  92.619140625 65.7769717261905  94.037109375 68.7952008928571  C 95.455078125 71.8134300595238  96.63671875 75.7167038690476  97.58203125 80.5050223214286  C 98.52734375 85.2933407738095  99 90.6603422619048  99 96.6060267857143  C 99 103.595610119048  96.8515625 109.575334821429  92.5546875 114.545200892857  C 88.2578125 119.515066964286  83.080078125 122  77.021484375 122  L 21.978515625 122  C 15.919921875 122  10.7421875 119.515066964286  6.4453125 114.545200892857  C 2.1484375 109.575334821429  0 103.595610119048  0 96.6060267857143  C 0 90.6603422619048  0.47265625 85.2933407738095  1.41796875 80.5050223214286  C 2.36328125 75.7167038690476  3.544921875 71.8134300595238  4.962890625 68.7952008928571  C 6.380859375 65.7769717261905  8.0888671875 63.1558779761905  10.0869140625 60.9319196428571  C 12.0849609375 58.7079613095238  13.9970703125 57.0513392857143  15.8232421875 55.9620535714286  C 17.6494140625 54.8727678571429  19.572265625 54.0104166666667  21.591796875 53.375  C 18.197265625 47.7016369047619  16.5 41.5290178571429  16.5 34.8571428571429  C 16.5 30.1369047619047  17.3701171875 25.6322544642857  19.1103515625 21.3431919642857  C 20.8505859375 17.0541294642857  23.203125 13.34375  26.16796875 10.2120535714286  C 29.1328125 7.08035714285715  32.6455078125 4.59542410714286  36.7060546875 2.75725446428571  C 40.7666015625 0.919084821428566  45.03125 0  49.5 0  C 53.96875 0  58.2333984375 0.919084821428566  62.2939453125 2.75725446428571  C 66.3544921875 4.59542410714286  69.8671875 7.08035714285715  72.83203125 10.2120535714286  C 75.796875 13.34375  78.1494140625 17.0541294642857  79.8896484375 21.3431919642857  C 81.6298828125 25.6322544642857  82.5 30.1369047619047  82.5 34.8571428571429  Z M 66.9990234375 16.3733258928571  C 62.1650390625 11.2672991071429  56.33203125 8.71428571428571  49.5 8.71428571428571  C 42.66796875 8.71428571428571  36.8349609375 11.2672991071429  32.0009765625 16.3733258928571  C 27.1669921875 21.4793526785714  24.75 27.640625  24.75 34.8571428571429  C 24.75 42.0736607142857  27.1669921875 48.2349330357143  32.0009765625 53.3409598214286  C 36.8349609375 58.4469866071429  42.66796875 61  49.5 61  C 56.33203125 61  62.1650390625 58.4469866071429  66.9990234375 53.3409598214286  C 71.8330078125 48.2349330357143  74.25 42.0736607142857  74.25 34.8571428571429  C 74.25 27.640625  71.8330078125 21.4793526785714  66.9990234375 16.3733258928571  Z M 21.978515625 113  L 77.021484375 113  C 80.802734375 113.285714285714  84.0361328125 111.663132440476  86.7216796875 108.41796875  C 89.4072265625 105.172805059524  90.75 101.235491071429  90.75 96.6060267857143  C 90.75 85.758556547619  89.0634765625 77.203125  85.6904296875 70.9397321428571  C 82.3173828125 64.6763392857143  77.47265625 61.3857886904762  71.15625 61.0680803571429  C 64.92578125 66.8322172619048  57.70703125 69.7142857142857  49.5 69.7142857142857  C 41.29296875 69.7142857142857  34.07421875 66.8322172619048  27.84375 61.0680803571429  C 21.52734375 61.3857886904762  16.6826171875 64.6763392857143  13.3095703125 70.9397321428571  C 9.9365234375 77.203125  8.25 85.758556547619  8.25 96.6060267857143  C 8.25 101.235491071429  9.5927734375 105.172805059524  12.2783203125 108.41796875  C 14.9638671875 111.663132440476  18.197265625 113.285714285714  21.978515625 113  Z " fill-rule="nonzero" fill="#000000" stroke="none" transform="matrix(1 0 0 1 261 301 )" />
  </g>
</svg>