<?xml version="1.0" encoding="utf-8"?>
<svg version="1.1" xmlns:xlink="http://www.w3.org/1999/xlink" width="37px" height="22px" xmlns="http://www.w3.org/2000/svg">
  <g transform="matrix(1 0 0 1 -199 -294 )">
    <path d="M 36.5423177083333 17.9265625  C 36.8474392361111 18.1442708333333  37 18.4020833333333  37 18.7  L 37 20.9  C 37 21.1979166666667  36.8474392361111 21.4557291666667  36.5423177083333 21.6734375  C 36.2371961805556 21.8911458333333  35.8758680555556 22  35.4583333333333 22  L 1.54166666666667 22  C 1.12413194444444 22  0.762803819444444 21.8911458333333  0.457682291666667 21.6734375  C 0.152560763888889 21.4557291666667  0 21.1979166666667  0 20.9  L 0 18.7  C 0 18.4020833333333  0.152560763888889 18.1442708333333  0.457682291666667 17.9265625  C 0.762803819444444 17.7088541666667  1.12413194444444 17.6  1.54166666666667 17.6  L 35.4583333333333 17.6  C 35.8758680555556 17.6  36.2371961805556 17.7088541666667  36.5423177083333 17.9265625  Z M 36.5423177083333 9.1265625  C 36.8474392361111 9.34427083333333  37 9.60208333333333  37 9.9  L 37 12.1  C 37 12.3979166666667  36.8474392361111 12.6557291666667  36.5423177083333 12.8734375  C 36.2371961805556 13.0911458333333  35.8758680555556 13.2  35.4583333333333 13  L 1.54166666666667 13  C 1.12413194444444 13.2  0.762803819444444 13.0911458333333  0.457682291666667 12.8734375  C 0.152560763888889 12.6557291666667  0 12.3979166666667  0 12.1  L 0 9.9  C 0 9.60208333333333  0.152560763888889 9.34427083333333  0.457682291666667 9.1265625  C 0.762803819444444 8.90885416666667  1.12413194444444 8.8  1.54166666666667 9  L 35.4583333333333 9  C 35.8758680555556 8.8  36.2371961805556 8.90885416666667  36.5423177083333 9.1265625  Z M 36.5423177083333 0.326562500000001  C 36.8474392361111 0.544270833333332  37 0.802083333333332  37 1.1  L 37 3.3  C 37 3.59791666666666  36.8474392361111 3.85572916666666  36.5423177083333 4.0734375  C 36.2371961805556 4.29114583333333  35.8758680555556 4.4  35.4583333333333 4.4  L 1.54166666666667 4.4  C 1.12413194444444 4.4  0.762803819444444 4.29114583333333  0.457682291666667 4.0734375  C 0.152560763888889 3.85572916666666  0 3.59791666666666  0 3.3  L 0 1.1  C 0 0.802083333333332  0.152560763888889 0.544270833333332  0.457682291666667 0.326562500000001  C 0.762803819444444 0.108854166666665  1.12413194444444 0  1.54166666666667 0  L 35.4583333333333 0  C 35.8758680555556 0  36.2371961805556 0.108854166666665  36.5423177083333 0.326562500000001  Z " fill-rule="nonzero" fill="#000000" stroke="none" transform="matrix(1 0 0 1 199 294 )" />
  </g>
</svg>