<?xml version="1.0" encoding="utf-8"?>
<svg version="1.1" xmlns:xlink="http://www.w3.org/1999/xlink" width="31px" height="40px" xmlns="http://www.w3.org/2000/svg">
  <g transform="matrix(1 0 0 1 -636 -285 )">
    <path d="M 25.8333333333333 11.4285714285714  C 25.8333333333333 13.6160714285714  25.3018663194444 15.6398809523809  24.2389322916667 17.5  C 24.8713107638889 17.7083333333333  25.4734157986111 17.9910714285714  26.0452473958333 18.3482142857143  C 26.6170789930556 18.7053571428571  27.2158203125 19.2485119047619  27.8414713541667 19.9776785714286  C 28.4671223958333 20.7068452380952  29.001953125 21.5662202380952  29.4459635416667 22.5558035714286  C 29.8899739583333 23.5453869047619  30.2599826388889 24.8251488095238  30.5559895833333 26.3950892857143  C 30.8519965277778 27.9650297619048  31 29.7247023809524  31 31.6741071428571  C 31 33.9657738095238  30.3272569444444 35.9263392857143  28.9817708333333 37.5558035714286  C 27.6362847222222 39.1852678571429  26.0149739583333 40  24.1178385416667 40  L 6.88216145833333 40  C 4.98502604166667 40  3.36371527777778 39.1852678571429  2.01822916666667 37.5558035714286  C 0.672743055555555 35.9263392857143  0 33.9657738095238  0 31.6741071428571  C 0 29.7247023809524  0.148003472222222 27.9650297619048  0.444010416666667 26.3950892857143  C 0.740017361111111 24.8251488095238  1.11002604166667 23.5453869047619  1.55403645833333 22.5558035714286  C 1.998046875 21.5662202380952  2.53287760416667 20.7068452380952  3.15852864583333 19.9776785714286  C 3.7841796875 19.2485119047619  4.38292100694445 18.7053571428571  4.95475260416667 18.3482142857143  C 5.52658420138889 17.9910714285714  6.12868923611111 17.7083333333333  6.76106770833333 17.5  C 5.69813368055556 15.6398809523809  5.16666666666667 13.6160714285714  5.16666666666667 11.4285714285714  C 5.16666666666667 9.88095238095238  5.43912760416667 8.40401785714286  5.98404947916667 6.99776785714286  C 6.52897135416667 5.59151785714286  7.265625 4.375  8.19401041666667 3.34821428571428  C 9.12239583333333 2.32142857142857  10.2223307291667 1.50669642857143  11.4938151041667 0.904017857142856  C 12.7652994791667 0.301339285714284  14.1006944444444 0  15.5 0  C 16.8993055555556 0  18.2347005208333 0.301339285714284  19.5061848958333 0.904017857142856  C 20.7776692708333 1.50669642857143  21.8776041666667 2.32142857142857  22.8059895833333 3.34821428571428  C 23.734375 4.375  24.4710286458333 5.59151785714286  25.0159505208333 6.99776785714286  C 25.5608723958333 8.40401785714286  25.8333333333333 9.88095238095238  25.8333333333333 11.4285714285714  Z M 20.9794921875 5.36830357142857  C 19.4658203125 3.69419642857143  17.6393229166667 2.85714285714286  15.5 2.85714285714286  C 13.3606770833333 2.85714285714286  11.5341796875 3.69419642857143  10.0205078125 5.36830357142857  C 8.5068359375 7.04241071428572  7.75 9.0625  7.75 11.4285714285714  C 7.75 13.7946428571429  8.5068359375 15.8147321428571  10.0205078125 17.4888392857143  C 11.5341796875 19.1629464285714  13.3606770833333 20  15.5 20  C 17.6393229166667 20  19.4658203125 19.1629464285714  20.9794921875 17.4888392857143  C 22.4931640625 15.8147321428571  23.25 13.7946428571429  23.25 11.4285714285714  C 23.25 9.0625  22.4931640625 7.04241071428572  20.9794921875 5.36830357142857  Z M 6.88216145833333 37  L 24.1178385416667 37  C 25.3018663194444 37.1428571428571  26.3143446180556 36.6108630952381  27.1552734375 35.546875  C 27.9962022569444 34.4828869047619  28.4166666666667 33.1919642857143  28.4166666666667 31.6741071428571  C 28.4166666666667 28.1175595238095  27.8885633680556 25.3125  26.8323567708333 23.2589285714286  C 25.7761501736111 21.2053571428571  24.2591145833333 20.1264880952381  22.28125 20.0223214285714  C 20.3302951388889 21.9122023809524  18.0698784722222 22.8571428571429  15.5 22.8571428571429  C 12.9301215277778 22.8571428571429  10.6697048611111 21.9122023809524  8.71875 20.0223214285714  C 6.74088541666667 20.1264880952381  5.22384982638889 21.2053571428571  4.16764322916667 23.2589285714286  C 3.11143663194444 25.3125  2.58333333333333 28.1175595238095  2.58333333333333 31.6741071428571  C 2.58333333333333 33.1919642857143  3.00379774305556 34.4828869047619  3.8447265625 35.546875  C 4.68565538194445 36.6108630952381  5.69813368055556 37.1428571428571  6.88216145833333 37  Z " fill-rule="nonzero" fill="#000000" stroke="none" transform="matrix(1 0 0 1 636 285 )" />
  </g>
</svg>