<?xml version="1.0" encoding="utf-8"?>
<svg version="1.1" xmlns:xlink="http://www.w3.org/1999/xlink" width="45px" height="44px" xmlns="http://www.w3.org/2000/svg">
  <g transform="matrix(1 0 0 1 -446 -13 )">
    <path d="M 468.5 13  C 481.1 13  491 22.68  491 35  C 491 47.32  481.1 57  468.5 57  C 455.9 57  446 47.32  446 35  C 446 22.68  455.9 13  468.5 13  Z " fill-rule="nonzero" fill="#ffffff" stroke="none" />
    <path d="M 468.5 13.5  C 480.82 13.5  490.5 22.96  490.5 35  C 490.5 47.04  480.82 56.5  468.5 56.5  C 456.18 56.5  446.5 47.04  446.5 35  C 446.5 22.96  456.18 13.5  468.5 13.5  Z " stroke-width="1" stroke="#797979" fill="none" />
  </g>
</svg>