<?xml version="1.0" encoding="utf-8"?>
<svg version="1.1" xmlns:xlink="http://www.w3.org/1999/xlink" width="33px" height="28px" xmlns="http://www.w3.org/2000/svg">
  <g transform="matrix(1 0 0 1 -452 -21 )">
    <path d="M 16.5 26.75  C 16.7115384615385 26.75  16.8173076923077 26.6666666666667  16.8173076923077 26.5  C 16.8173076923077 26.3333333333333  16.7115384615385 26.25  16.5 26.25  C 15.7199519230769 26.25  15.0489783653846 26.0286458333333  14.4870793269231 25.5859375  C 13.9251802884615 25.1432291666667  13.6442307692308 24.6145833333333  13.6442307692308 24  C 13.6442307692308 23.8333333333333  13.5384615384615 23.75  13.3269230769231 23.75  C 13.1153846153846 23.75  13.0096153846154 23.8333333333333  13.0096153846154 24  C 13.0096153846154 24.7604166666667  13.3500600961538 25.4088541666667  14.0309495192308 25.9453125  C 14.7118389423077 26.4817708333333  15.5348557692308 26.75  16.5 26.75  Z M 8.88461538461539 9  C 8.88461538461539 14.5416666666667  7.12620192307692 18.875  3.609375 22  L 29.390625 22  C 25.8737980769231 18.875  24.1153846153846 14.5416666666667  24.1153846153846 9  C 24.1153846153846 8.46875  23.9567307692308 7.921875  23.6394230769231 7.359375  C 23.3221153846154 6.796875  22.8659855769231 6.26041666666666  22.2710336538462 5.75  C 21.6760817307692 5.23958333333333  20.8728966346154 4.8203125  19.8614783653846 4.4921875  C 18.8500600961538 4.1640625  17.7295673076923 4  16.5 4  C 15.2704326923077 4  14.1499399038462 4.1640625  13.1385216346154 4.4921875  C 12.1271033653846 4.8203125  11.3239182692308 5.23958333333333  10.7289663461538 5.75  C 10.1340144230769 6.26041666666666  9.67788461538462 6.796875  9.36057692307692 7.359375  C 9.04326923076923 7.921875  8.88461538461539 8.46875  8.88461538461539 9  Z M 31.1953125 20.625  C 31.7373798076923 21.1041666666667  32.3389423076923 21.5625  33 22  C 33 22.5416666666667  32.7487980769231 23.0104166666667  32.2463942307692 23.40625  C 31.7439903846154 23.8020833333333  31.1490384615385 24  30.4615384615385 24  L 21.5769230769231 24  C 21.5769230769231 25.1041666666667  21.0811298076923 26.046875  20.0895432692308 26.828125  C 19.0979567307692 27.609375  17.9014423076923 28  16.5 28  C 15.0985576923077 28  13.9020432692308 27.609375  12.9104567307692 26.828125  C 11.9188701923077 26.046875  11.4230769230769 25.1041666666667  11.4230769230769 24  L 2.53846153846154 24  C 1.85096153846154 24  1.25600961538462 23.8020833333333  0.753605769230769 23.40625  C 0.251201923076923 23.0104166666667  0 22.5416666666667  0 22  C 0.661057692307693 21.5625  1.26262019230769 21.1041666666667  1.8046875 20.625  C 2.34675480769231 20.1458333333333  2.90865384615385 19.5234375  3.49038461538462 18.7578125  C 4.07211538461539 17.9921875  4.56460336538462 17.1666666666667  4.96784855769231 16.28125  C 5.37109375 15.3958333333333  5.70162259615385 14.3229166666667  5.95943509615385 13.0625  C 6.21724759615385 11.8020833333333  6.34615384615385 10.4479166666667  6.34615384615385 9  C 6.34615384615385 7.41666666666667  7.11959134615385 5.9453125  8.66646634615384 4.5859375  C 10.2133413461538 3.2265625  12.2427884615385 2.40104166666666  14.7548076923077 2.109375  C 14.6490384615385 1.91145833333333  14.5961538461538 1.70833333333333  14.5961538461538 1.5  C 14.5961538461538 1.08333333333333  14.78125 0.729166666666666  15.1514423076923 0.4375  C 15.5216346153846 0.145833333333334  15.9711538461538 0  16.5 0  C 17.0288461538462 0  17.4783653846154 0.145833333333334  17.8485576923077 0.4375  C 18.21875 0.729166666666666  18.4038461538462 1.08333333333333  18.4038461538462 1.5  C 18.4038461538462 1.70833333333333  18.3509615384615 1.91145833333333  18.2451923076923 2.109375  C 20.7572115384615 2.40104166666666  22.7866586538462 3.2265625  24.3335336538462 4.5859375  C 25.8804086538462 5.9453125  26.6538461538462 7.41666666666667  26.6538461538462 9  C 26.6538461538462 10.4479166666667  26.7827524038462 11.8020833333333  27.0405649038462 13.0625  C 27.2983774038462 14.3229166666667  27.62890625 15.3958333333333  28.0321514423077 16.28125  C 28.4353966346154 17.1666666666667  28.9278846153846 17.9921875  29.5096153846154 18.7578125  C 30.0913461538462 19.5234375  30.6532451923077 20.1458333333333  31.1953125 20.625  Z " fill-rule="nonzero" fill="#000000" stroke="none" transform="matrix(1 0 0 1 452 21 )" />
  </g>
</svg>