<?xml version="1.0" encoding="utf-8"?>
<svg version="1.1" xmlns:xlink="http://www.w3.org/1999/xlink" width="58px" height="41px" xmlns="http://www.w3.org/2000/svg">
  <g transform="matrix(1 0 0 1 -473 -760 )">
    <path d="M 29 39.1696428571429  C 29.3717948717949 39.1696428571429  29.5576923076923 39.0476190476191  29.5576923076923 38.8035714285714  C 29.5576923076923 38.5595238095238  29.3717948717949 38.4375  29 38.4375  C 27.6290064102564 38.4375  26.4497195512821 38.1133742559524  25.4621394230769 37.4651227678571  C 24.4745592948718 36.8168712797619  23.9807692307692 36.0427827380952  23.9807692307692 35.1428571428571  C 23.9807692307692 34.8988095238095  23.7948717948718 34.7767857142857  23.4230769230769 34.7767857142857  C 23.0512820512821 34.7767857142857  22.8653846153846 34.8988095238095  22.8653846153846 35.1428571428571  C 22.8653846153846 36.2563244047619  23.4637419871795 37.2058221726191  24.6604567307692 37.9913504464286  C 25.857171474359 38.7768787202381  27.3036858974359 39.1696428571429  29 39.1696428571429  Z M 15.6153846153846 13.1785714285714  C 15.6153846153846 21.2931547619048  12.5248397435897 27.6383928571429  6.34375 32  L 51.65625 32  C 45.4751602564103 27.6383928571429  42.3846153846154 21.2931547619048  42.3846153846154 13.1785714285714  C 42.3846153846154 12.4006696428571  42.1057692307692 11.5998883928571  41.5480769230769 10.7762276785714  C 40.9903846153846 9.95256696428571  40.1887019230769 9.16703869047619  39.1430288461538 8.41964285714286  C 38.0973557692308 7.67224702380952  36.6856971153846 7.05831473214286  34.9080528846154 6.57784598214286  C 33.1304086538462 6.09737723214286  31.1610576923077 5.85714285714286  29 5.85714285714286  C 26.8389423076923 5.85714285714286  24.8695913461538 6.09737723214286  23.0919471153846 6.57784598214286  C 21.3143028846154 7.05831473214286  19.9026442307692 7.67224702380952  18.8569711538462 8.41964285714286  C 17.8112980769231 9.16703869047619  17.0096153846154 9.95256696428571  16.4519230769231 10.7762276785714  C 15.8942307692308 11.5998883928571  15.6153846153846 12.4006696428571  15.6153846153846 13.1785714285714  Z M 54.828125 30.2008928571429  C 55.7808493589744 30.9025297619048  56.838141025641 31.5736607142857  58 32.2142857142857  C 58 33.0074404761905  57.5584935897436 33.6938244047619  56.6754807692308 34.2734375  C 55.792467948718 34.8530505952381  54.7467948717949 35.1428571428571  53.5384615384615 35  L 37.9230769230769 35  C 37.9230769230769 36.7596726190476  37.0516826923077 38.1400669642857  35.3088942307692 39.2840401785714  C 33.5661057692308 40.4280133928571  31.463141025641 41  29 41  C 26.536858974359 41  24.4338942307692 40.4280133928571  22.6911057692308 39.2840401785714  C 20.9483173076923 38.1400669642857  20.0769230769231 36.7596726190476  20.0769230769231 35  L 4.46153846153846 35  C 3.25320512820513 35.1428571428571  2.20753205128205 34.8530505952381  1.32451923076923 34.2734375  C 0.44150641025641 33.6938244047619  0 33.0074404761905  0 32.2142857142857  C 1.16185897435897 31.5736607142857  2.21915064102564 30.9025297619048  3.171875 30.2008928571429  C 4.12459935897436 29.4992559523809  5.11217948717949 28.587890625  6.13461538461538 27.466796875  C 7.15705128205128 26.345703125  8.02263621794872 25.1369047619048  8.73137019230769 23.8404017857143  C 9.44010416666667 22.5438988095238  10.0210336538462 20.9728422619048  10.4741586538462 19.1272321428571  C 10.9272836538462 17.2816220238095  11.1538461538462 15.2987351190476  11.1538461538462 13.1785714285714  C 11.1538461538462 10.860119047619  12.5132211538462 8.70563616071429  15.2319711538462 6.71512276785714  C 17.9507211538462 4.724609375  21.5176282051282 3.51581101190476  25.9326923076923 3.08872767857143  C 25.7467948717949 2.79892113095238  25.6538461538462 2.5014880952381  25.6538461538462 2.19642857142857  C 25.6538461538462 1.58630952380952  25.9791666666667 1.06770833333333  26.6298076923077 0.640625  C 27.2804487179487 0.213541666666668  28.0705128205128 0  29 0  C 29.9294871794872 0  30.7195512820513 0.213541666666668  31.3701923076923 0.640625  C 32.0208333333333 1.06770833333333  32.3461538461538 1.58630952380952  32.3461538461538 2.19642857142857  C 32.3461538461538 2.5014880952381  32.2532051282051 2.79892113095238  32.0673076923077 3.08872767857143  C 36.4823717948718 3.51581101190476  40.0492788461538 4.724609375  42.7680288461538 6.71512276785714  C 45.4867788461538 8.70563616071429  46.8461538461538 10.860119047619  46.8461538461538 13.1785714285714  C 46.8461538461538 15.2987351190476  47.0727163461538 17.2816220238095  47.5258413461538 19.1272321428571  C 47.9789663461538 20.9728422619048  48.5598958333333 22.5438988095238  49.2686298076923 23.8404017857143  C 49.9773637820513 25.1369047619048  50.8429487179487 26.345703125  51.8653846153846 27.466796875  C 52.8878205128205 28.587890625  53.8754006410257 29.4992559523809  54.828125 30.2008928571429  Z " fill-rule="nonzero" fill="#000000" stroke="none" transform="matrix(1 0 0 1 473 760 )" />
  </g>
</svg>