<?xml version="1.0" encoding="utf-8"?>
<svg version="1.1" xmlns:xlink="http://www.w3.org/1999/xlink" width="29px" height="11px" xmlns="http://www.w3.org/2000/svg">
  <g transform="matrix(1 0 0 1 -703 -410 )">
    <path d="M 7.33238636363636 0.802083333333333  C 7.71685606060606 1.33680555555555  7.90909090909091 1.98611111111111  7.90909090909091 2.75  L 7.90909090909091 8.25  C 7.90909090909091 9.01388888888889  7.71685606060606 9.66319444444444  7.33238636363636 10.1979166666667  C 6.94791666666667 10.7326388888889  6.48106060606061 11  5.93181818181818 11  L 1.97727272727273 11  C 1.4280303030303 11  0.961174242424243 10.7326388888889  0.576704545454545 10.1979166666667  C 0.192234848484848 9.66319444444444  0 9.01388888888889  0 8.25  L 0 2.75  C 0 1.98611111111111  0.192234848484848 1.33680555555555  0.576704545454545 0.802083333333333  C 0.961174242424243 0.267361111111109  1.4280303030303 0  1.97727272727273 0  L 5.93181818181818 0  C 6.48106060606061 0  6.94791666666667 0.267361111111109  7.33238636363636 0.802083333333333  Z M 17.8778409090909 0.802083333333333  C 18.2623106060606 1.33680555555555  18.4545454545455 1.98611111111111  18.4545454545455 2.75  L 18.4545454545455 8.25  C 18.4545454545455 9.01388888888889  18.2623106060606 9.66319444444444  17.8778409090909 10.1979166666667  C 17.4933712121212 10.7326388888889  17.0265151515152 11  16.4772727272727 11  L 12.5227272727273 11  C 11.9734848484848 11  11.5066287878788 10.7326388888889  11.1221590909091 10.1979166666667  C 10.7376893939394 9.66319444444444  10.5454545454545 9.01388888888889  10.5454545454545 8.25  L 10.5454545454545 2.75  C 10.5454545454545 1.98611111111111  10.7376893939394 1.33680555555555  11.1221590909091 0.802083333333333  C 11.5066287878788 0.267361111111109  11.9734848484848 0  12.5227272727273 0  L 16.4772727272727 0  C 17.0265151515152 0  17.4933712121212 0.267361111111109  17.8778409090909 0.802083333333333  Z M 28.4232954545455 0.802083333333333  C 28.8077651515152 1.33680555555555  29 1.98611111111111  29 2.75  L 29 8.25  C 29 9.01388888888889  28.8077651515152 9.66319444444444  28.4232954545455 10.1979166666667  C 28.0388257575758 10.7326388888889  27.5719696969697 11  27.0227272727273 11  L 23.0681818181818 11  C 22.5189393939394 11  22.0520833333333 10.7326388888889  21.6676136363636 10.1979166666667  C 21.2831439393939 9.66319444444444  21.0909090909091 9.01388888888889  21.0909090909091 8.25  L 21.0909090909091 2.75  C 21.0909090909091 1.98611111111111  21.2831439393939 1.33680555555555  21.6676136363636 0.802083333333333  C 22.0520833333333 0.267361111111109  22.5189393939394 0  23.0681818181818 0  L 27.0227272727273 0  C 27.5719696969697 0  28.0388257575758 0.267361111111109  28.4232954545455 0.802083333333333  Z " fill-rule="nonzero" fill="#000000" stroke="none" transform="matrix(1 0 0 1 703 410 )" />
  </g>
</svg>