<?xml version="1.0" encoding="utf-8"?>
<svg version="1.1" xmlns:xlink="http://www.w3.org/1999/xlink" width="25px" height="27px" xmlns="http://www.w3.org/2000/svg">
  <g transform="matrix(1 0 0 1 -668 -402 )">
    <path d="M 16.2434895833333 17.26171875  C 17.2417534722222 16.25390625  18.4244791666667 15.75  19.7916666666667 15.75  C 21.2348090277778 15.75  22.4636501736111 16.2978515625  23.4781901041667 17.3935546875  C 24.4927300347222 18.4892578125  25 19.81640625  25 21.375  C 25 22.93359375  24.4927300347222 24.2607421875  23.4781901041667 25.3564453125  C 22.4636501736111 26.4521484375  21.2348090277778 27  19.7916666666667 27  C 18.3485243055556 27  17.1196831597222 26.4521484375  16.1051432291667 25.3564453125  C 15.0906032986111 24.2607421875  14.5833333333333 22.93359375  14.5833333333333 21.375  C 14.5833333333333 21.234375  14.5941840277778 21.03515625  14.6158854166667 20.77734375  L 8.75651041666667 17.61328125  C 7.75824652777778 18.62109375  6.57552083333333 19.125  5.20833333333333 19.125  C 3.76519097222222 19.125  2.53634982638889 18.5771484375  1.52180989583333 17.4814453125  C 0.507269965277778 16.3857421875  0 15.05859375  0 13.5  C 0 11.94140625  0.507269965277778 10.6142578125  1.52180989583333 9.5185546875  C 2.53634982638889 8.4228515625  3.76519097222222 7.875  5.20833333333333 7.875  C 6.57552083333333 7.875  7.75824652777778 8.37890625  8.75651041666667 9.38671875  L 14.6158854166667 6.22265625  C 14.5941840277778 5.96484375  14.5833333333333 5.765625  14.5833333333333 5.625  C 14.5833333333333 4.06640625  15.0906032986111 2.7392578125  16.1051432291667 1.6435546875  C 17.1196831597222 0.547851562499998  18.3485243055556 0  19.7916666666667 0  C 21.2348090277778 0  22.4636501736111 0.547851562499998  23.4781901041667 1.6435546875  C 24.4927300347222 2.7392578125  25 4.06640625  25 5.625  C 25 7.18359375  24.4927300347222 8.5107421875  23.4781901041667 9.6064453125  C 22.4636501736111 10.7021484375  21.2348090277778 11.25  19.7916666666667 11.25  C 18.4244791666667 11.25  17.2417534722222 10.74609375  16.2434895833333 9.73828125  L 10.3841145833333 12.90234375  C 10.4058159722222 13.16015625  10.4166666666667 13.359375  10.4166666666667 13.5  C 10.4166666666667 13.640625  10.4058159722222 13.83984375  10.3841145833333 14.09765625  L 16.2434895833333 17.26171875  Z " fill-rule="nonzero" fill="#000000" stroke="none" transform="matrix(1 0 0 1 668 402 )" />
  </g>
</svg>