<?xml version="1.0" encoding="utf-8"?>
<svg version="1.1" xmlns:xlink="http://www.w3.org/1999/xlink" width="33px" height="38px" xmlns="http://www.w3.org/2000/svg">
  <g transform="matrix(1 0 0 1 -712 -562 )">
    <path d="M 2.53846153846154 29.1785714285714  L 2.53846153846154 35.2857142857143  L 8.25 35.2857142857143  L 8.25 29.1785714285714  L 2.53846153846154 29.1785714285714  Z M 9.51923076923077 29.1785714285714  L 9.51923076923077 35.2857142857143  L 15.8653846153846 35.2857142857143  L 15.8653846153846 29.1785714285714  L 9.51923076923077 29.1785714285714  Z M 2.53846153846154 21.0357142857143  L 2.53846153846154 27.8214285714286  L 8.25 27.8214285714286  L 8.25 21.0357142857143  L 2.53846153846154 21.0357142857143  Z M 9.51923076923077 21.0357142857143  L 9.51923076923077 27.8214285714286  L 15.8653846153846 27.8214285714286  L 15.8653846153846 21.0357142857143  L 9.51923076923077 21.0357142857143  Z M 2.53846153846154 13.5714285714286  L 2.53846153846154 19.6785714285714  L 8.25 19.6785714285714  L 8.25 13.5714285714286  L 2.53846153846154 13.5714285714286  Z M 17.1346153846154 29.1785714285714  L 17.1346153846154 35.2857142857143  L 23.4807692307692 35.2857142857143  L 23.4807692307692 29.1785714285714  L 17.1346153846154 29.1785714285714  Z M 9.51923076923077 13.5714285714286  L 9.51923076923077 19.6785714285714  L 15.8653846153846 19.6785714285714  L 15.8653846153846 13.5714285714286  L 9.51923076923077 13.5714285714286  Z M 24.75 29.1785714285714  L 24.75 35.2857142857143  L 30.4615384615385 35.2857142857143  L 30.4615384615385 29.1785714285714  L 24.75 29.1785714285714  Z M 17.1346153846154 21.0357142857143  L 17.1346153846154 27.8214285714286  L 23.4807692307692 27.8214285714286  L 23.4807692307692 21.0357142857143  L 17.1346153846154 21.0357142857143  Z M 9.96544471153846 9.97712053571429  C 10.0910456730769 9.84281994047619  10.1538461538462 9.68377976190476  10.1538461538462 9.5  L 10.1538461538462 3.39285714285714  C 10.1538461538462 3.20907738095238  10.0910456730769 3.05003720238095  9.96544471153846 2.91573660714286  C 9.83984375 2.78143601190476  9.69110576923077 2.71428571428571  9.51923076923077 2.71428571428571  L 8.25 2.71428571428571  C 8.078125 2.71428571428571  7.92938701923077 2.78143601190476  7.80378605769231 2.91573660714286  C 7.67818509615384 3.05003720238095  7.61538461538462 3.20907738095238  7.61538461538462 3.39285714285714  L 7.61538461538462 9.5  C 7.61538461538462 9.68377976190476  7.67818509615384 9.84281994047619  7.80378605769231 9.97712053571429  C 7.92938701923077 10.1114211309524  8.078125 10.1785714285714  8.25 10.1785714285714  L 9.51923076923077 10.1785714285714  C 9.69110576923077 10.1785714285714  9.83984375 10.1114211309524  9.96544471153846 9.97712053571429  Z M 24.75 21.0357142857143  L 24.75 27.8214285714286  L 30.4615384615385 27.8214285714286  L 30.4615384615385 21.0357142857143  L 24.75 21.0357142857143  Z M 17.1346153846154 13.5714285714286  L 17.1346153846154 19.6785714285714  L 23.4807692307692 19.6785714285714  L 23.4807692307692 13.5714285714286  L 17.1346153846154 13.5714285714286  Z M 24.75 13.5714285714286  L 24.75 19.6785714285714  L 30.4615384615385 19.6785714285714  L 30.4615384615385 13.5714285714286  L 24.75 13.5714285714286  Z M 25.1962139423077 9.97712053571429  C 25.3218149038462 9.84281994047619  25.3846153846154 9.68377976190476  25.3846153846154 9.5  L 25.3846153846154 3.39285714285714  C 25.3846153846154 3.20907738095238  25.3218149038462 3.05003720238095  25.1962139423077 2.91573660714286  C 25.0706129807692 2.78143601190476  24.921875 2.71428571428571  24.75 2.71428571428571  L 23.4807692307692 2.71428571428571  C 23.3088942307692 2.71428571428571  23.16015625 2.78143601190476  23.0345552884615 2.91573660714286  C 22.9089543269231 3.05003720238095  22.8461538461538 3.20907738095238  22.8461538461538 3.39285714285714  L 22.8461538461538 9.5  C 22.8461538461538 9.68377976190476  22.9089543269231 9.84281994047619  23.0345552884615 9.97712053571429  C 23.16015625 10.1114211309524  23.3088942307692 10.1785714285714  23.4807692307692 10.1785714285714  L 24.75 10.1785714285714  C 24.921875 10.1785714285714  25.0706129807692 10.1114211309524  25.1962139423077 9.97712053571429  Z M 32.2463942307692 6.234375  C 32.7487980769231 6.77157738095238  33 7.40773809523809  33 8.14285714285714  L 33 35.2857142857143  C 33 36.0208333333333  32.7487980769231 36.6569940476191  32.2463942307692 37.1941964285714  C 31.7439903846154 37.7313988095238  31.1490384615385 38  30.4615384615385 38  L 2.53846153846154 38  C 1.85096153846154 38  1.25600961538462 37.7313988095238  0.753605769230769 37.1941964285714  C 0.251201923076923 36.6569940476191  0 36.0208333333333  0 35.2857142857143  L 0 8.14285714285714  C 0 7.40773809523809  0.251201923076923 6.77157738095238  0.753605769230769 6.234375  C 1.25600961538462 5.69717261904762  1.85096153846154 5.42857142857143  2.53846153846154 5.42857142857143  L 5.07692307692308 5.42857142857143  L 5.07692307692308 3.39285714285714  C 5.07692307692308 2.45982142857143  5.38762019230769 1.66108630952381  6.00901442307692 0.996651785714287  C 6.63040865384616 0.332217261904762  7.37740384615385 0  8.25 0  L 9.51923076923077 0  C 10.3918269230769 0  11.1388221153846 0.332217261904762  11.7602163461538 0.996651785714287  C 12.3816105769231 1.66108630952381  12.6923076923077 2.45982142857143  12.6923076923077 3.39285714285714  L 12.6923076923077 5.42857142857143  L 20.3076923076923 5.42857142857143  L 20.3076923076923 3.39285714285714  C 20.3076923076923 2.45982142857143  20.6183894230769 1.66108630952381  21.2397836538462 0.996651785714287  C 21.8611778846154 0.332217261904762  22.6081730769231 0  23.4807692307692 0  L 24.75 0  C 25.6225961538462 0  26.3695913461538 0.332217261904762  26.9909855769231 0.996651785714287  C 27.6123798076923 1.66108630952381  27.9230769230769 2.45982142857143  27.9230769230769 3.39285714285714  L 27.9230769230769 5.42857142857143  L 30.4615384615385 5.42857142857143  C 31.1490384615385 5.42857142857143  31.7439903846154 5.69717261904762  32.2463942307692 6.234375  Z " fill-rule="nonzero" fill="#000000" stroke="none" transform="matrix(1 0 0 1 712 562 )" />
  </g>
</svg>