<?xml version="1.0" encoding="utf-8"?>
<svg version="1.1" xmlns:xlink="http://www.w3.org/1999/xlink" width="33px" height="34px" xmlns="http://www.w3.org/2000/svg">
  <g transform="matrix(1 0 0 1 -712 -593 )">
    <path d="M 22.3330078125 15.33984375  C 23.9443359375 14.2330729166667  24.75 12.8975694444444  24.75 11.3333333333333  C 24.75 9.76909722222222  23.9443359375 8.43359375  22.3330078125 7.32682291666667  C 20.7216796875 6.22005208333333  18.77734375 5.66666666666667  16.5 5.66666666666667  C 14.22265625 5.66666666666667  12.2783203125 6.22005208333333  10.6669921875 7.32682291666667  C 9.0556640625 8.43359375  8.25 9.76909722222222  8.25 11.3333333333333  C 8.25 12.8975694444444  9.0556640625 14.2330729166667  10.6669921875 15.33984375  C 12.2783203125 16.4466145833333  14.22265625 17  16.5 17  C 18.77734375 17  20.7216796875 16.4466145833333  22.3330078125 15.33984375  Z M 28.166015625 3.3203125  C 31.388671875 5.53385416666667  33 8.20486111111111  33 11.3333333333333  C 33 12.9418402777778  32.6455078125 14.2625868055556  31.9365234375 15.2955729166667  L 20.2060546875 32.4283854166667  C 19.8623046875 32.9153645833333  19.35205078125 33.2990451388889  18.67529296875 33.5794270833333  C 17.99853515625 33.8598090277778  17.2734375 34  16.5 34  C 15.7265625 34  15.00146484375 33.8598090277778  14.32470703125 33.5794270833333  C 13.64794921875 33.2990451388889  13.1484375 32.9153645833333  12.826171875 32.4283854166667  L 1.0634765625 15.2955729166667  C 0.3544921875 14.2625868055556  0 12.9418402777778  0 11.3333333333333  C 0 8.20486111111111  1.611328125 5.53385416666667  4.833984375 3.3203125  C 8.056640625 1.10677083333333  11.9453125 0  16.5 0  C 21.0546875 0  24.943359375 1.10677083333333  28.166015625 3.3203125  Z " fill-rule="nonzero" fill="#000000" stroke="none" transform="matrix(1 0 0 1 712 593 )" />
  </g>
</svg>