<?xml version="1.0" encoding="utf-8"?>
<svg version="1.1" xmlns:xlink="http://www.w3.org/1999/xlink" width="15px" height="12px" xmlns="http://www.w3.org/2000/svg">
  <g transform="matrix(1 0 0 1 -556 -682 )">
    <path d="M 11.7103794642857 7.0703125  C 11.7606026785714 7.1171875  11.7857142857143 7.17708333333333  11.7857142857143 7.25  L 11.7857142857143 9.75  C 11.7857142857143 10.3697916666667  11.5499441964286 10.8997395833333  11.0784040178571 11.33984375  C 10.6068638392857 11.7799479166667  10.0390625 12  9.375 12  L 2.41071428571429 12  C 1.74665178571429 12  1.17885044642857 11.7799479166667  0.707310267857143 11.33984375  C 0.235770089285714 10.8997395833333  0 10.3697916666667  0 9.75  L 0 3.25  C 0 2.63020833333333  0.235770089285714 2.10026041666667  0.707310267857143 1.66015625  C 1.17885044642857 1.22005208333333  1.74665178571429 1  2.41071428571429 1  L 8.30357142857143 1  C 8.38169642857143 1  8.44587053571428 1.0234375  8.49609375 1.0703125  C 8.54631696428572 1.1171875  8.57142857142857 1.17708333333333  8.57142857142857 1.25  L 8.57142857142857 1.75  C 8.57142857142857 1.82291666666667  8.54631696428572 1.8828125  8.49609375 1.9296875  C 8.44587053571428 1.9765625  8.38169642857143 2  8.30357142857143 2  L 2.41071428571429 2  C 2.04241071428571 2  1.72712053571429 2.12239583333333  1.46484375 2.3671875  C 1.20256696428571 2.61197916666667  1.07142857142857 2.90625  1.07142857142857 3.25  L 1.07142857142857 9.75  C 1.07142857142857 10.09375  1.20256696428571 10.3880208333333  1.46484375 10.6328125  C 1.72712053571429 10.8776041666667  2.04241071428571 11  2.41071428571429 11  L 9.375 11  C 9.74330357142857 11  10.05859375 10.8776041666667  10.3208705357143 10.6328125  C 10.5831473214286 10.3880208333333  10.7142857142857 10.09375  10.7142857142857 9.75  L 10.7142857142857 7.25  C 10.7142857142857 7.17708333333333  10.7393973214286 7.1171875  10.7896205357143 7.0703125  C 10.83984375 7.0234375  10.9040178571429 7  10.9821428571429 7  L 11.5178571428571 7  C 11.5959821428571 7  11.66015625 7.0234375  11.7103794642857 7.0703125  Z M 14.8409598214286 0.1484375  C 14.9469866071429 0.247395833333332  15 0.364583333333332  15 0.5  L 15 4.5  C 15 4.63541666666667  14.9469866071429 4.75260416666667  14.8409598214286 4.8515625  C 14.7349330357143 4.95052083333333  14.609375 5  14.4642857142857 5  C 14.3191964285714 5  14.1936383928571 4.95052083333333  14.0876116071429 4.8515625  L 12.6143973214286 3.4765625  L 7.15680803571429 8.5703125  C 7.10100446428571 8.62239583333333  7.03683035714286 8.6484375  6.96428571428571 8.6484375  C 6.89174107142857 8.6484375  6.82756696428571 8.62239583333333  6.77176339285714 8.5703125  L 5.81752232142857 7.6796875  C 5.76171875 7.62760416666667  5.73381696428571 7.56770833333333  5.73381696428571 7.5  C 5.73381696428571 7.43229166666667  5.76171875 7.37239583333333  5.81752232142857 7.3203125  L 11.2751116071429 2.2265625  L 9.80189732142857 0.8515625  C 9.69587053571429 0.752604166666666  9.64285714285714 0.635416666666666  9.64285714285714 0.5  C 9.64285714285714 0.364583333333332  9.69587053571429 0.247395833333332  9.80189732142857 0.1484375  C 9.90792410714286 0.0494791666666674  10.0334821428571 0  10.1785714285714 0  L 14.4642857142857 0  C 14.609375 0  14.7349330357143 0.0494791666666674  14.8409598214286 0.1484375  Z " fill-rule="nonzero" fill="#000000" stroke="none" transform="matrix(1 0 0 1 556 682 )" />
  </g>
</svg>