<?xml version="1.0" encoding="utf-8"?>
<svg version="1.1" xmlns:xlink="http://www.w3.org/1999/xlink" width="35px" height="40px" xmlns="http://www.w3.org/2000/svg">
  <g transform="matrix(1 0 0 1 -262 -155 )">
    <path d="M 263 160  A 4 4 0 0 1 267 156 L 292 156  A 4 4 0 0 1 296 160 L 296 190  A 4 4 0 0 1 292 194 L 267 194  A 4 4 0 0 1 263 190 L 263 160  Z " fill-rule="nonzero" fill="#ffffff" stroke="none" fill-opacity="0" />
    <path d="M 262.5 160  A 4.5 4.5 0 0 1 267 155.5 L 292 155.5  A 4.5 4.5 0 0 1 296.5 160 L 296.5 190  A 4.5 4.5 0 0 1 292 194.5 L 267 194.5  A 4.5 4.5 0 0 1 262.5 190 L 262.5 160  Z " stroke-width="1" stroke="#797979" fill="none" stroke-opacity="0.0470588235294118" />
  </g>
</svg>